<svg xmlns="http://www.w3.org/2000/svg" width="300" height="186" viewBox="0 0 300 186">
  <metadata><?xpacket begin="﻿" id="W5M0MpCehiHzreSzNTczkc9d"?>
<x:xmpmeta xmlns:x="adobe:ns:meta/" x:xmptk="Adobe XMP Core 5.6-c140 79.160451, 2017/05/06-01:08:21        ">
   <rdf:RDF xmlns:rdf="http://www.w3.org/1999/02/22-rdf-syntax-ns#">
      <rdf:Description rdf:about=""/>
   </rdf:RDF>
</x:xmpmeta>
                                                                                                    
                                                                                                    
                                                                                                    
                                                                                                    
                                                                                                    
                                                                                                    
                                                                                                    
                                                                                                    
                                                                                                    
                                                                                                    
                                                                                                    
                                                                                                    
                                                                                                    
                                                                                                    
                                                                                                    
                                                                                                    
                                                                                                    
                                                                                                    
                                                                                                    
                                                                                                    
                           
<?xpacket end="w"?></metadata>
<defs>
    <style>
      .cls-1 {
        fill: #fff;
      }

      .cls-2 {
        fill: #f0f0f0;
      }

      .cls-3 {
        fill-rule: evenodd;
      }
    </style>
  </defs>
  <rect class="cls-1" width="299" height="186"/>
  <rect class="cls-2" x="57" width="186" height="186"/>
  <path id="SHOWCASE_SELF_MADE_DESIGN_TOOLS" data-name="SHOWCASE SELF           MADE DESIGN TOOLS" class="cls-3" d="M88.359,79.61a2.78,2.78,0,0,0-1.146-.835,4.228,4.228,0,0,0-2.584-.071,3.181,3.181,0,0,0-1,.5,2.361,2.361,0,0,0-.959,1.975,2.474,2.474,0,0,0,.175.978,2.1,2.1,0,0,0,.479.7,2.779,2.779,0,0,0,.719.492,6.685,6.685,0,0,0,.907.356l1.062,0.363a3.4,3.4,0,0,1,.751.35,1.275,1.275,0,0,1,.44.46,1.464,1.464,0,0,1,.142.693,1.294,1.294,0,0,1-.181.686,1.658,1.658,0,0,1-.466.5,2.139,2.139,0,0,1-.641.3,2.533,2.533,0,0,1-1.833-.155,1.917,1.917,0,0,1-.829-0.764l-0.933.764a2.338,2.338,0,0,0,.557.589,3.116,3.116,0,0,0,.693.389,3.864,3.864,0,0,0,.771.22,4.6,4.6,0,0,0,.8.071,4.482,4.482,0,0,0,1.2-.162,3.115,3.115,0,0,0,1.03-.492,2.414,2.414,0,0,0,.991-2.027,2.468,2.468,0,0,0-.227-1.12,2.185,2.185,0,0,0-.609-0.745,3.478,3.478,0,0,0-.881-0.492q-0.5-.194-1.03-0.363a8.214,8.214,0,0,1-.92-0.337,2.352,2.352,0,0,1-.6-0.363,1.157,1.157,0,0,1-.317-0.434,1.456,1.456,0,0,1-.1-0.55,1.4,1.4,0,0,1,.168-0.7,1.361,1.361,0,0,1,.447-0.479,2.114,2.114,0,0,1,.628-0.272,2.829,2.829,0,0,1,.712-0.091,2.312,2.312,0,0,1,.946.2,1.6,1.6,0,0,1,.725.641Zm4.6,8.329h1.088V83.665h4.9v4.274h1.088V78.768H98.941v3.886h-4.9V78.768H92.957v9.171Zm18.179-.129a4.627,4.627,0,0,0,1.516-1,4.522,4.522,0,0,0,1-1.528,5.375,5.375,0,0,0,0-3.847,4.524,4.524,0,0,0-1-1.528,4.63,4.63,0,0,0-1.516-1,5.283,5.283,0,0,0-3.847,0,4.615,4.615,0,0,0-1.515,1,4.512,4.512,0,0,0-1,1.528,5.375,5.375,0,0,0,0,3.847,4.51,4.51,0,0,0,1,1.528,4.612,4.612,0,0,0,1.515,1A5.283,5.283,0,0,0,111.136,87.81Zm-3.393-.946a3.473,3.473,0,0,1-1.147-.816,3.735,3.735,0,0,1-.745-1.211,4.283,4.283,0,0,1,0-2.966,3.739,3.739,0,0,1,.745-1.211,3.479,3.479,0,0,1,1.147-.816,3.776,3.776,0,0,1,2.94,0,3.464,3.464,0,0,1,1.146.816,3.722,3.722,0,0,1,.745,1.211,4.268,4.268,0,0,1,0,2.966,3.717,3.717,0,0,1-.745,1.211,3.459,3.459,0,0,1-1.146.816A3.776,3.776,0,0,1,107.743,86.864Zm12.272,1.075h1.192l2.28-7.772h0.026l2.267,7.772h1.178l2.694-9.171h-1.139l-2.125,7.616h-0.026l-2.24-7.616H122.9l-2.254,7.616h-0.026l-2.085-7.616h-1.2Zm20.868-7.966a3.307,3.307,0,0,0-1.445-1.1,4.884,4.884,0,0,0-1.794-.337,4.618,4.618,0,0,0-1.878.376,4.519,4.519,0,0,0-2.441,2.552,5.16,5.16,0,0,0-.344,1.891,5.091,5.091,0,0,0,.357,1.93,4.612,4.612,0,0,0,.984,1.522,4.527,4.527,0,0,0,1.483,1,4.663,4.663,0,0,0,1.839.363,4.819,4.819,0,0,0,1.976-.388,3.777,3.777,0,0,0,1.5-1.218L140.3,85.88a3.42,3.42,0,0,1-1.153.952,3.555,3.555,0,0,1-2.921.032,3.369,3.369,0,0,1-1.1-.81,3.735,3.735,0,0,1-.719-1.2,4.23,4.23,0,0,1-.259-1.5,4.085,4.085,0,0,1,.259-1.444,3.839,3.839,0,0,1,.726-1.218,3.515,3.515,0,0,1,1.107-.835,3.176,3.176,0,0,1,1.405-.311,3.02,3.02,0,0,1,1.27.278,2.618,2.618,0,0,1,1.023.835Zm3.328,7.966h1.231l0.946-2.254h4.585l0.933,2.254h1.269l-3.9-9.171h-1.023Zm6.347-3.264h-3.743l1.9-4.508h0.026Zm11.723-5.065a2.78,2.78,0,0,0-1.147-.835,4.227,4.227,0,0,0-2.584-.071,3.179,3.179,0,0,0-1,.5,2.359,2.359,0,0,0-.959,1.975,2.484,2.484,0,0,0,.175.978,2.11,2.11,0,0,0,.48.7,2.769,2.769,0,0,0,.718.492,6.747,6.747,0,0,0,.907.356l1.062,0.363a3.42,3.42,0,0,1,.752.35,1.277,1.277,0,0,1,.44.46,1.464,1.464,0,0,1,.142.693,1.292,1.292,0,0,1-.181.686,1.656,1.656,0,0,1-.466.5,2.142,2.142,0,0,1-.641.3,2.533,2.533,0,0,1-1.833-.155,1.914,1.914,0,0,1-.829-0.764l-0.933.764a2.348,2.348,0,0,0,.557.589,3.125,3.125,0,0,0,.693.389,3.861,3.861,0,0,0,.771.22,4.588,4.588,0,0,0,.8.071,4.489,4.489,0,0,0,1.2-.162,3.118,3.118,0,0,0,1.029-.492,2.66,2.66,0,0,0,.764-3.147,2.188,2.188,0,0,0-.608-0.745,3.488,3.488,0,0,0-.881-0.492q-0.5-.194-1.03-0.363a8.243,8.243,0,0,1-.92-0.337,2.342,2.342,0,0,1-.595-0.363,1.161,1.161,0,0,1-.318-0.434,1.471,1.471,0,0,1-.1-0.55,1.391,1.391,0,0,1,.169-0.7,1.364,1.364,0,0,1,.446-0.479A2.114,2.114,0,0,1,159,79.636a2.824,2.824,0,0,1,.712-0.091,2.316,2.316,0,0,1,.946.2,1.6,1.6,0,0,1,.725.641Zm4.6,8.329h6v-1.01h-4.909V83.665h4.365v-1.01h-4.365V79.779h4.676v-1.01h-5.764v9.171Zm21.813-8.329a2.78,2.78,0,0,0-1.147-.835,4.227,4.227,0,0,0-2.584-.071,3.179,3.179,0,0,0-1,.5,2.359,2.359,0,0,0-.959,1.975,2.484,2.484,0,0,0,.175.978,2.107,2.107,0,0,0,.479.7,2.792,2.792,0,0,0,.719.492,6.747,6.747,0,0,0,.907.356l1.062,0.363a3.389,3.389,0,0,1,.751.35,1.272,1.272,0,0,1,.441.46,1.464,1.464,0,0,1,.142.693,1.292,1.292,0,0,1-.181.686,1.669,1.669,0,0,1-.466.5,2.136,2.136,0,0,1-.642.3,2.505,2.505,0,0,1-.7.1,2.534,2.534,0,0,1-1.127-.259,1.909,1.909,0,0,1-.829-0.764L182.8,86.9a2.331,2.331,0,0,0,.557.589,3.125,3.125,0,0,0,.693.389,3.861,3.861,0,0,0,.771.22,4.588,4.588,0,0,0,.8.071,4.476,4.476,0,0,0,1.2-.162,3.113,3.113,0,0,0,1.03-.492,2.66,2.66,0,0,0,.764-3.147,2.188,2.188,0,0,0-.608-0.745,3.488,3.488,0,0,0-.881-0.492q-0.5-.194-1.03-0.363a8.243,8.243,0,0,1-.92-0.337,2.342,2.342,0,0,1-.595-0.363,1.161,1.161,0,0,1-.318-0.434,1.452,1.452,0,0,1-.1-0.55,1.4,1.4,0,0,1,.168-0.7,1.376,1.376,0,0,1,.447-0.479,2.114,2.114,0,0,1,.629-0.272,2.824,2.824,0,0,1,.712-0.091,2.308,2.308,0,0,1,.945.2,1.6,1.6,0,0,1,.726.641Zm4.6,8.329h6v-1.01h-4.909V83.665h4.365v-1.01h-4.365V79.779h4.676v-1.01H193.29v9.171Zm10.323,0H208.9v-1.01h-4.2v-8.16h-1.088v9.171Zm9.119,0h1.088V83.82H218.1V82.81H213.82V79.779h4.6v-1.01h-5.686v9.171ZM62.349,108h1.088V100.3h0.026L66.753,108h0.661L70.7,100.3H70.73V108h1.088v-9.17h-1.58L67.1,106.015H67.077l-3.109-7.188H62.349V108Zm13.329,0h1.23l0.946-2.254h4.585L83.372,108h1.269l-3.9-9.17H79.719Zm6.347-3.264H78.281l1.9-4.507h0.026ZM88.333,108h3.523a4.779,4.779,0,0,0,.959-0.1,4.7,4.7,0,0,0,1.962-.92,3.933,3.933,0,0,0,.81-0.874,4.375,4.375,0,0,0,.557-1.179,5.6,5.6,0,0,0,0-3.018,4.375,4.375,0,0,0-.557-1.179,3.935,3.935,0,0,0-.81-0.874,4.676,4.676,0,0,0-.959-0.589,4.816,4.816,0,0,0-1.962-.434H88.333V108Zm1.088-8.16h2.072a4.968,4.968,0,0,1,1.464.207,3.133,3.133,0,0,1,1.166.641,3.025,3.025,0,0,1,.777,1.108,4.743,4.743,0,0,1,0,3.238,3.025,3.025,0,0,1-.777,1.108,3.133,3.133,0,0,1-1.166.641,4.962,4.962,0,0,1-1.464.207H89.421v-7.15ZM100.742,108h6v-1.01H101.83v-3.264H106.2v-1.011H101.83V99.837h4.676v-1.01h-5.764V108Zm16.4,0h3.523a4.787,4.787,0,0,0,.959-0.1,4.712,4.712,0,0,0,1.962-.92,3.963,3.963,0,0,0,.81-0.874,4.368,4.368,0,0,0,.556-1.179,5.578,5.578,0,0,0,0-3.018,4.368,4.368,0,0,0-.556-1.179,3.965,3.965,0,0,0-.81-0.874,4.672,4.672,0,0,0-.959-0.589,4.733,4.733,0,0,0-1-.33,4.79,4.79,0,0,0-.959-0.1H117.14V108Zm1.088-8.16H120.3a4.968,4.968,0,0,1,1.464.207,3.131,3.131,0,0,1,1.166.641,3.024,3.024,0,0,1,.777,1.108,4.741,4.741,0,0,1,0,3.238,3.024,3.024,0,0,1-.777,1.108,3.131,3.131,0,0,1-1.166.641,4.962,4.962,0,0,1-1.464.207h-2.072v-7.15ZM129.549,108h6v-1.01h-4.909v-3.264H135v-1.011h-4.365V99.837h4.676v-1.01h-5.764V108Zm15.569-8.328a2.783,2.783,0,0,0-1.146-.835,4.226,4.226,0,0,0-2.584-.071,3.182,3.182,0,0,0-1,.5,2.362,2.362,0,0,0-.958,1.976,2.467,2.467,0,0,0,.175.978,2.087,2.087,0,0,0,.479.7,2.738,2.738,0,0,0,.719.492,6.732,6.732,0,0,0,.906.357l1.063,0.362a3.451,3.451,0,0,1,.751.35,1.281,1.281,0,0,1,.44.46,1.463,1.463,0,0,1,.143.693,1.29,1.29,0,0,1-.182.686,1.657,1.657,0,0,1-.466.5,2.141,2.141,0,0,1-.641.3,2.489,2.489,0,0,1-.706.1,2.534,2.534,0,0,1-1.127-.259,1.92,1.92,0,0,1-.829-0.764l-0.933.764a2.337,2.337,0,0,0,.557.589,3.114,3.114,0,0,0,.693.389,3.834,3.834,0,0,0,.771.22,4.585,4.585,0,0,0,2.008-.09,3.112,3.112,0,0,0,1.03-.493,2.415,2.415,0,0,0,.99-2.027,2.465,2.465,0,0,0-.226-1.12,2.182,2.182,0,0,0-.609-0.745,3.457,3.457,0,0,0-.881-0.492q-0.5-.195-1.03-0.363a8.041,8.041,0,0,1-.919-0.337,2.361,2.361,0,0,1-.6-0.362,1.151,1.151,0,0,1-.317-0.434,1.456,1.456,0,0,1-.1-0.551,1.389,1.389,0,0,1,.169-0.7,1.359,1.359,0,0,1,.447-0.48,2.109,2.109,0,0,1,.628-0.272,2.824,2.824,0,0,1,.712-0.091,2.313,2.313,0,0,1,.946.2,1.6,1.6,0,0,1,.725.641Zm4.6,8.328H150.8v-9.17h-1.088V108Zm13.808-5.129h-3.2v1.01h2.111v2.811a4.657,4.657,0,0,1-1.114.4,5.332,5.332,0,0,1-1.166.136,4.046,4.046,0,0,1-1.541-.285,3.486,3.486,0,0,1-1.2-.8,3.623,3.623,0,0,1-.777-1.212,4.288,4.288,0,0,1,0-3.043,3.553,3.553,0,0,1,.777-1.2,3.594,3.594,0,0,1,1.172-.79,3.72,3.72,0,0,1,1.464-.285,3.589,3.589,0,0,1,1.366.272,3.122,3.122,0,0,1,1.134.777l0.816-.855a3.735,3.735,0,0,0-1.5-.933,5.593,5.593,0,0,0-1.743-.272,5.249,5.249,0,0,0-1.93.35,4.888,4.888,0,0,0-1.567.978,4.455,4.455,0,0,0-1.056,1.516,4.955,4.955,0,0,0-.382,1.975,5.131,5.131,0,0,0,.363,1.962,4.424,4.424,0,0,0,1.017,1.522,4.6,4.6,0,0,0,1.548.985,5.363,5.363,0,0,0,1.969.349,7.654,7.654,0,0,0,1.768-.207,6.494,6.494,0,0,0,1.664-.647v-4.508ZM168.446,108h1.088v-7.616h0.026L174.871,108h1.373v-9.17h-1.088v7.616H175.13l-5.311-7.616h-1.373V108Zm25.116-9.17h-7.15v1.01h3.031V108h1.088v-8.16h3.031v-1.01Zm10.11,9.041a4.635,4.635,0,0,0,1.515-1,4.5,4.5,0,0,0,1-1.529,5.36,5.36,0,0,0,0-3.847,4.492,4.492,0,0,0-1-1.528,4.627,4.627,0,0,0-1.515-1,5.283,5.283,0,0,0-3.847,0,4.621,4.621,0,0,0-1.516,1,4.507,4.507,0,0,0-1,1.528,5.36,5.36,0,0,0,0,3.847,4.511,4.511,0,0,0,1,1.529,4.629,4.629,0,0,0,1.516,1A5.291,5.291,0,0,0,203.672,107.868Zm-3.394-.946a3.443,3.443,0,0,1-1.146-.816,3.714,3.714,0,0,1-.745-1.211,4.267,4.267,0,0,1,0-2.966,3.714,3.714,0,0,1,.745-1.211,3.448,3.448,0,0,1,1.146-.816,3.776,3.776,0,0,1,2.94,0,3.462,3.462,0,0,1,1.147.816,3.728,3.728,0,0,1,.744,1.211,4.267,4.267,0,0,1,0,2.966,3.728,3.728,0,0,1-.744,1.211,3.457,3.457,0,0,1-1.147.816A3.775,3.775,0,0,1,200.278,106.922Zm16.839,0.946a4.625,4.625,0,0,0,1.515-1,4.513,4.513,0,0,0,1-1.529,5.374,5.374,0,0,0,0-3.847,4.509,4.509,0,0,0-1-1.528,4.617,4.617,0,0,0-1.515-1,5.283,5.283,0,0,0-3.847,0,4.632,4.632,0,0,0-1.516,1,4.507,4.507,0,0,0-1,1.528,5.374,5.374,0,0,0,0,3.847,4.511,4.511,0,0,0,1,1.529,4.64,4.64,0,0,0,1.516,1A5.291,5.291,0,0,0,217.117,107.868Zm-3.394-.946a3.443,3.443,0,0,1-1.146-.816,3.714,3.714,0,0,1-.745-1.211,4.267,4.267,0,0,1,0-2.966,3.714,3.714,0,0,1,.745-1.211,3.448,3.448,0,0,1,1.146-.816,3.776,3.776,0,0,1,2.94,0,3.462,3.462,0,0,1,1.147.816,3.728,3.728,0,0,1,.744,1.211,4.267,4.267,0,0,1,0,2.966,3.728,3.728,0,0,1-.744,1.211,3.457,3.457,0,0,1-1.147.816A3.775,3.775,0,0,1,213.723,106.922ZM224.377,108h5.285v-1.01h-4.2v-8.16h-1.088V108Zm14.365-8.328a2.779,2.779,0,0,0-1.147-.835,4.226,4.226,0,0,0-2.584-.071,3.176,3.176,0,0,0-1,.5,2.359,2.359,0,0,0-.959,1.976,2.485,2.485,0,0,0,.175.978,2.1,2.1,0,0,0,.479.7,2.754,2.754,0,0,0,.719.492,6.8,6.8,0,0,0,.907.357l1.062,0.362a3.429,3.429,0,0,1,.751.35,1.276,1.276,0,0,1,.441.46,1.463,1.463,0,0,1,.142.693,1.29,1.29,0,0,1-.181.686,1.67,1.67,0,0,1-.466.5,2.136,2.136,0,0,1-.642.3,2.478,2.478,0,0,1-.705.1,2.531,2.531,0,0,1-1.127-.259,1.909,1.909,0,0,1-.829-0.764l-0.933.764a2.319,2.319,0,0,0,.557.589,3.114,3.114,0,0,0,.693.389,3.834,3.834,0,0,0,.771.22,4.58,4.58,0,0,0,2.007-.09,3.1,3.1,0,0,0,1.03-.493,2.659,2.659,0,0,0,.764-3.147,2.191,2.191,0,0,0-.608-0.745,3.457,3.457,0,0,0-.881-0.492q-0.5-.195-1.03-0.363a8.064,8.064,0,0,1-.92-0.337,2.353,2.353,0,0,1-.595-0.362,1.165,1.165,0,0,1-.318-0.434,1.456,1.456,0,0,1-.1-0.551,1.4,1.4,0,0,1,.168-0.7,1.377,1.377,0,0,1,.447-0.48,2.114,2.114,0,0,1,.629-0.272,2.824,2.824,0,0,1,.712-0.091,2.316,2.316,0,0,1,.946.2,1.6,1.6,0,0,1,.725.641Z"/>
</svg>
