<svg xmlns="http://www.w3.org/2000/svg" width="300" height="186" viewBox="0 0 300 186">
  <metadata><?xpacket begin="﻿" id="W5M0MpCehiHzreSzNTczkc9d"?>
<x:xmpmeta xmlns:x="adobe:ns:meta/" x:xmptk="Adobe XMP Core 5.6-c140 79.160451, 2017/05/06-01:08:21        ">
   <rdf:RDF xmlns:rdf="http://www.w3.org/1999/02/22-rdf-syntax-ns#">
      <rdf:Description rdf:about=""/>
   </rdf:RDF>
</x:xmpmeta>
                                                                                                    
                                                                                                    
                                                                                                    
                                                                                                    
                                                                                                    
                                                                                                    
                                                                                                    
                                                                                                    
                                                                                                    
                                                                                                    
                                                                                                    
                                                                                                    
                                                                                                    
                                                                                                    
                                                                                                    
                                                                                                    
                                                                                                    
                                                                                                    
                                                                                                    
                                                                                                    
                           
<?xpacket end="w"?></metadata>
<defs>
    <style>
      .cls-1 {
        fill: #fff;
      }

      .cls-2 {
        fill: #f0f0f0;
      }

      .cls-3 {
        fill-rule: evenodd;
      }
    </style>
  </defs>
  <rect class="cls-1" width="299" height="186"/>
  <rect class="cls-2" x="57" width="186" height="186"/>
  <path id="DISCOVER_TOOLS_DESIGNED_FOR_YOU" data-name="DISCOVER TOOLS           DESIGNED FOR YOU" class="cls-3" d="M80.22,87.939h3.523a4.767,4.767,0,0,0,.959-0.1,4.684,4.684,0,0,0,1.962-.92,3.921,3.921,0,0,0,.81-0.874,4.373,4.373,0,0,0,.557-1.179,5.6,5.6,0,0,0,0-3.018,4.379,4.379,0,0,0-.557-1.179,3.93,3.93,0,0,0-.81-0.874,4.676,4.676,0,0,0-.959-0.589,4.724,4.724,0,0,0-1-.33,4.781,4.781,0,0,0-.959-0.1H80.22v9.171Zm1.088-8.16h2.072a4.962,4.962,0,0,1,1.464.207,3.132,3.132,0,0,1,1.166.641,3.019,3.019,0,0,1,.777,1.107,4.743,4.743,0,0,1,0,3.238,3.016,3.016,0,0,1-.777,1.107,3.126,3.126,0,0,1-1.166.641,4.956,4.956,0,0,1-1.464.207H81.309v-7.15Zm11.321,8.16h1.088V78.768H92.629v9.171Zm11.256-8.329a2.777,2.777,0,0,0-1.146-.835,4.227,4.227,0,0,0-2.584-.071,3.181,3.181,0,0,0-1,.5,2.36,2.36,0,0,0-.959,1.975,2.476,2.476,0,0,0,.175.978,2.1,2.1,0,0,0,.479.7,2.779,2.779,0,0,0,.719.492,6.658,6.658,0,0,0,.907.356l1.062,0.363a3.41,3.41,0,0,1,.751.35,1.281,1.281,0,0,1,.441.46,1.476,1.476,0,0,1,.142.693,1.3,1.3,0,0,1-.181.686,1.659,1.659,0,0,1-.467.5,2.131,2.131,0,0,1-.641.3,2.532,2.532,0,0,1-1.833-.155,1.917,1.917,0,0,1-.829-0.764l-0.933.764a2.341,2.341,0,0,0,.557.589,3.118,3.118,0,0,0,.693.389,3.868,3.868,0,0,0,.77.22,4.605,4.605,0,0,0,.8.071,4.478,4.478,0,0,0,1.2-.162,3.113,3.113,0,0,0,1.03-.492,2.414,2.414,0,0,0,.991-2.027,2.467,2.467,0,0,0-.227-1.12,2.179,2.179,0,0,0-.609-0.745,3.471,3.471,0,0,0-.881-0.492q-0.5-.194-1.029-0.363a8.169,8.169,0,0,1-.92-0.337,2.363,2.363,0,0,1-.6-0.363,1.158,1.158,0,0,1-.317-0.434,1.456,1.456,0,0,1-.1-0.55,1.4,1.4,0,0,1,.168-0.7,1.361,1.361,0,0,1,.447-0.479,2.12,2.12,0,0,1,.628-0.272,2.832,2.832,0,0,1,.713-0.091,2.308,2.308,0,0,1,.945.2,1.609,1.609,0,0,1,.726.641Zm11.969,0.363a3.309,3.309,0,0,0-1.444-1.1,4.892,4.892,0,0,0-1.794-.337,4.62,4.62,0,0,0-1.879.376,4.519,4.519,0,0,0-2.441,2.552,5.159,5.159,0,0,0-.343,1.891,5.09,5.09,0,0,0,.356,1.93,4.612,4.612,0,0,0,.984,1.522,4.527,4.527,0,0,0,1.483,1,4.665,4.665,0,0,0,1.84.363,4.818,4.818,0,0,0,1.975-.388,3.777,3.777,0,0,0,1.5-1.218l-0.816-.687a3.4,3.4,0,0,1-1.153.952,3.555,3.555,0,0,1-2.921.032,3.379,3.379,0,0,1-1.1-.81,3.753,3.753,0,0,1-.719-1.2,4.253,4.253,0,0,1-.259-1.5,4.108,4.108,0,0,1,.259-1.444,3.839,3.839,0,0,1,.726-1.218,3.526,3.526,0,0,1,1.107-.835,3.18,3.18,0,0,1,1.406-.311,3.019,3.019,0,0,1,1.269.278,2.618,2.618,0,0,1,1.023.835ZM126.43,87.81a4.612,4.612,0,0,0,1.515-1,4.51,4.51,0,0,0,1-1.528,5.375,5.375,0,0,0,0-3.847,4.512,4.512,0,0,0-1-1.528,4.615,4.615,0,0,0-1.515-1,5.283,5.283,0,0,0-3.847,0,4.63,4.63,0,0,0-1.516,1,4.509,4.509,0,0,0-1,1.528,5.375,5.375,0,0,0,0,3.847,4.507,4.507,0,0,0,1,1.528,4.627,4.627,0,0,0,1.516,1A5.283,5.283,0,0,0,126.43,87.81Zm-3.394-.946a3.459,3.459,0,0,1-1.146-.816,3.717,3.717,0,0,1-.745-1.211,4.283,4.283,0,0,1,0-2.966,3.722,3.722,0,0,1,.745-1.211,3.464,3.464,0,0,1,1.146-.816,3.776,3.776,0,0,1,2.94,0,3.479,3.479,0,0,1,1.147.816,3.739,3.739,0,0,1,.745,1.211,4.283,4.283,0,0,1,0,2.966,3.735,3.735,0,0,1-.745,1.211,3.473,3.473,0,0,1-1.147.816A3.776,3.776,0,0,1,123.036,86.864Zm12.908,1.075h1.049l3.588-9.171h-1.153l-2.914,7.539h-0.026l-2.824-7.539h-1.23Zm8.3,0h6v-1.01h-4.909V83.665H149.7v-1.01h-4.365V79.779h4.676v-1.01h-5.764v9.171Zm10.323,0h1.088V83.82h1.4l2.487,4.119h1.334l-2.6-4.223a2.908,2.908,0,0,0,1.684-.79,2.232,2.232,0,0,0,.609-1.632,2.462,2.462,0,0,0-.324-1.354,2.119,2.119,0,0,0-.842-0.758,3.532,3.532,0,0,0-1.172-.337,11.132,11.132,0,0,0-1.315-.078H154.57v9.171Zm1.088-8.16h1.528a6.154,6.154,0,0,1,.8.052,2.18,2.18,0,0,1,.712.214,1.315,1.315,0,0,1,.512.46,1.424,1.424,0,0,1,.194.79,1.29,1.29,0,0,1-.265.874,1.555,1.555,0,0,1-.674.447,3.211,3.211,0,0,1-.894.168q-0.484.026-.939,0.026h-0.971V79.779Zm21.864-1.01h-7.15v1.01H173.4v8.16h1.088v-8.16h3.031v-1.01Zm10.11,9.041a4.612,4.612,0,0,0,1.515-1,4.51,4.51,0,0,0,1-1.528,5.375,5.375,0,0,0,0-3.847,4.512,4.512,0,0,0-1-1.528,4.615,4.615,0,0,0-1.515-1,5.283,5.283,0,0,0-3.847,0,4.63,4.63,0,0,0-1.516,1,4.509,4.509,0,0,0-1,1.528,5.375,5.375,0,0,0,0,3.847,4.507,4.507,0,0,0,1,1.528,4.627,4.627,0,0,0,1.516,1A5.283,5.283,0,0,0,187.632,87.81Zm-3.394-.946a3.459,3.459,0,0,1-1.146-.816,3.717,3.717,0,0,1-.745-1.211,4.283,4.283,0,0,1,0-2.966,3.722,3.722,0,0,1,.745-1.211,3.464,3.464,0,0,1,1.146-.816,3.778,3.778,0,0,1,2.941,0,3.485,3.485,0,0,1,1.146.816,3.739,3.739,0,0,1,.745,1.211,4.283,4.283,0,0,1,0,2.966,3.735,3.735,0,0,1-.745,1.211,3.479,3.479,0,0,1-1.146.816A3.778,3.778,0,0,1,184.238,86.864Zm16.839,0.946a4.627,4.627,0,0,0,1.516-1,4.522,4.522,0,0,0,1-1.528,5.375,5.375,0,0,0,0-3.847,4.524,4.524,0,0,0-1-1.528,4.63,4.63,0,0,0-1.516-1,5.283,5.283,0,0,0-3.847,0,4.615,4.615,0,0,0-1.515,1,4.512,4.512,0,0,0-1,1.528,5.375,5.375,0,0,0,0,3.847,4.51,4.51,0,0,0,1,1.528,4.612,4.612,0,0,0,1.515,1A5.283,5.283,0,0,0,201.077,87.81Zm-3.394-.946a3.469,3.469,0,0,1-1.146-.816,3.735,3.735,0,0,1-.745-1.211,4.283,4.283,0,0,1,0-2.966,3.739,3.739,0,0,1,.745-1.211,3.475,3.475,0,0,1,1.146-.816,3.778,3.778,0,0,1,2.941,0,3.475,3.475,0,0,1,1.146.816,3.739,3.739,0,0,1,.745,1.211,4.283,4.283,0,0,1,0,2.966,3.735,3.735,0,0,1-.745,1.211,3.469,3.469,0,0,1-1.146.816A3.778,3.778,0,0,1,197.683,86.864Zm10.654,1.075h5.285v-1.01h-4.2v-8.16h-1.088v9.171ZM222.7,79.61a2.783,2.783,0,0,0-1.146-.835,4.227,4.227,0,0,0-2.584-.071,3.184,3.184,0,0,0-1,.5,2.362,2.362,0,0,0-.958,1.975,2.467,2.467,0,0,0,.175.978,2.092,2.092,0,0,0,.479.7,2.775,2.775,0,0,0,.719.492,6.68,6.68,0,0,0,.906.356l1.063,0.363a3.41,3.41,0,0,1,.751.35,1.277,1.277,0,0,1,.44.46,1.463,1.463,0,0,1,.143.693,1.293,1.293,0,0,1-.182.686,1.656,1.656,0,0,1-.466.5,2.142,2.142,0,0,1-.641.3,2.533,2.533,0,0,1-1.833-.155,1.92,1.92,0,0,1-.829-0.764l-0.933.764a2.348,2.348,0,0,0,.557.589,3.125,3.125,0,0,0,.693.389,3.88,3.88,0,0,0,.771.22,4.6,4.6,0,0,0,.8.071,4.484,4.484,0,0,0,1.2-.162,3.123,3.123,0,0,0,1.03-.492,2.5,2.5,0,0,0,.718-0.835,2.814,2.814,0,0,0,.046-2.312,2.179,2.179,0,0,0-.609-0.745,3.471,3.471,0,0,0-.881-0.492q-0.5-.194-1.03-0.363a8.219,8.219,0,0,1-.919-0.337,2.35,2.35,0,0,1-.6-0.363,1.148,1.148,0,0,1-.317-0.434,1.451,1.451,0,0,1-.1-0.55,1.4,1.4,0,0,1,.169-0.7,1.358,1.358,0,0,1,.447-0.479,2.109,2.109,0,0,1,.628-0.272,2.824,2.824,0,0,1,.712-0.091,2.313,2.313,0,0,1,.946.2,1.6,1.6,0,0,1,.725.641ZM69.528,108h3.523a4.78,4.78,0,0,0,.959-0.1,4.7,4.7,0,0,0,1.962-.92,3.93,3.93,0,0,0,.809-0.874,4.369,4.369,0,0,0,.557-1.179,5.6,5.6,0,0,0,0-3.018,4.369,4.369,0,0,0-.557-1.179,3.933,3.933,0,0,0-.809-0.874,4.676,4.676,0,0,0-.959-0.589,4.816,4.816,0,0,0-1.962-.434H69.528V108Zm1.088-8.16h2.073a4.969,4.969,0,0,1,1.464.207,3.133,3.133,0,0,1,1.166.641,3.025,3.025,0,0,1,.777,1.108,4.741,4.741,0,0,1,0,3.238,3.025,3.025,0,0,1-.777,1.108,3.133,3.133,0,0,1-1.166.641,4.962,4.962,0,0,1-1.464.207H70.616v-7.15ZM81.937,108h6v-1.01H83.025v-3.264H87.39v-1.011H83.025V99.837H87.7v-1.01H81.937V108Zm15.569-8.328a2.778,2.778,0,0,0-1.146-.835,4.226,4.226,0,0,0-2.584-.071,3.18,3.18,0,0,0-1,.5,2.361,2.361,0,0,0-.959,1.976,2.474,2.474,0,0,0,.175.978,2.1,2.1,0,0,0,.479.7,2.744,2.744,0,0,0,.719.492,6.743,6.743,0,0,0,.907.357l1.062,0.362a3.444,3.444,0,0,1,.751.35,1.278,1.278,0,0,1,.44.46,1.463,1.463,0,0,1,.142.693,1.292,1.292,0,0,1-.181.686,1.662,1.662,0,0,1-.466.5,2.139,2.139,0,0,1-.641.3,2.486,2.486,0,0,1-.706.1,2.533,2.533,0,0,1-1.127-.259,1.916,1.916,0,0,1-.829-0.764l-0.933.764a2.328,2.328,0,0,0,.557.589,3.108,3.108,0,0,0,.693.389,3.839,3.839,0,0,0,.771.22,4.583,4.583,0,0,0,2.008-.09,3.1,3.1,0,0,0,1.03-.493,2.66,2.66,0,0,0,.764-3.147,2.189,2.189,0,0,0-.609-0.745,3.447,3.447,0,0,0-.881-0.492q-0.5-.195-1.03-0.363a8.036,8.036,0,0,1-.92-0.337,2.361,2.361,0,0,1-.6-0.362,1.161,1.161,0,0,1-.317-0.434,1.46,1.46,0,0,1-.1-0.551,1.4,1.4,0,0,1,.168-0.7,1.361,1.361,0,0,1,.447-0.48,2.115,2.115,0,0,1,.628-0.272,2.83,2.83,0,0,1,.712-0.091,2.312,2.312,0,0,1,.945.2,1.6,1.6,0,0,1,.725.641ZM102.1,108h1.088v-9.17H102.1V108Zm13.808-5.129h-3.2v1.01h2.111v2.811a4.657,4.657,0,0,1-1.114.4,5.332,5.332,0,0,1-1.166.136,4.046,4.046,0,0,1-1.541-.285,3.486,3.486,0,0,1-1.2-.8,3.623,3.623,0,0,1-.777-1.212,4.288,4.288,0,0,1,0-3.043,3.553,3.553,0,0,1,.777-1.2,3.594,3.594,0,0,1,1.172-.79,3.72,3.72,0,0,1,1.464-.285,3.589,3.589,0,0,1,1.366.272,3.122,3.122,0,0,1,1.134.777l0.816-.855a3.739,3.739,0,0,0-1.5-.933,5.582,5.582,0,0,0-1.742-.272,5.249,5.249,0,0,0-1.93.35,4.877,4.877,0,0,0-1.567.978,4.455,4.455,0,0,0-1.056,1.516,4.955,4.955,0,0,0-.382,1.975,5.131,5.131,0,0,0,.363,1.962,4.424,4.424,0,0,0,1.017,1.522,4.6,4.6,0,0,0,1.548.985,5.357,5.357,0,0,0,1.968.349,7.656,7.656,0,0,0,1.769-.207,6.494,6.494,0,0,0,1.664-.647v-4.508ZM120.834,108h1.088v-7.616h0.026L127.259,108h1.373v-9.17h-1.088v7.616h-0.026l-5.311-7.616h-1.373V108Zm12.72,0h6v-1.01h-4.909v-3.264h4.365v-1.011h-4.365V99.837h4.676v-1.01h-5.764V108Zm10.155,0h3.523a4.787,4.787,0,0,0,.959-0.1,4.712,4.712,0,0,0,1.962-.92,3.935,3.935,0,0,0,.809-0.874,4.34,4.34,0,0,0,.557-1.179,5.578,5.578,0,0,0,0-3.018,4.34,4.34,0,0,0-.557-1.179,3.938,3.938,0,0,0-.809-0.874,4.672,4.672,0,0,0-.959-0.589,4.733,4.733,0,0,0-1-.33,4.79,4.79,0,0,0-.959-0.1h-3.523V108Zm1.088-8.16h2.072a4.968,4.968,0,0,1,1.464.207,3.131,3.131,0,0,1,1.166.641,3.024,3.024,0,0,1,.777,1.108,4.741,4.741,0,0,1,0,3.238,3.024,3.024,0,0,1-.777,1.108,3.131,3.131,0,0,1-1.166.641,4.962,4.962,0,0,1-1.464.207H144.8v-7.15ZM162.361,108h1.088v-4.119h4.275v-1.01h-4.275V99.837h4.6v-1.01h-5.686V108Zm16.029-.129a4.64,4.64,0,0,0,1.516-1,4.511,4.511,0,0,0,1-1.529,5.374,5.374,0,0,0,0-3.847,4.507,4.507,0,0,0-1-1.528,4.632,4.632,0,0,0-1.516-1,5.283,5.283,0,0,0-3.847,0,4.617,4.617,0,0,0-1.515,1,4.509,4.509,0,0,0-1,1.528,5.374,5.374,0,0,0,0,3.847,4.513,4.513,0,0,0,1,1.529,4.625,4.625,0,0,0,1.515,1A5.291,5.291,0,0,0,178.39,107.868ZM175,106.922a3.457,3.457,0,0,1-1.147-.816,3.731,3.731,0,0,1-.745-1.211,4.282,4.282,0,0,1,0-2.966,3.731,3.731,0,0,1,.745-1.211A3.462,3.462,0,0,1,175,99.9a3.776,3.776,0,0,1,2.94,0,3.448,3.448,0,0,1,1.146.816,3.714,3.714,0,0,1,.745,1.211,4.267,4.267,0,0,1,0,2.966,3.714,3.714,0,0,1-.745,1.211,3.443,3.443,0,0,1-1.146.816A3.775,3.775,0,0,1,175,106.922ZM185.65,108h1.088v-4.119h1.4L190.624,108h1.334l-2.6-4.222a2.91,2.91,0,0,0,1.684-.79,2.235,2.235,0,0,0,.609-1.633,2.461,2.461,0,0,0-.324-1.353,2.126,2.126,0,0,0-.842-0.758,3.539,3.539,0,0,0-1.172-.337A11.157,11.157,0,0,0,188,98.827H185.65V108Zm1.088-8.16h1.529a6.121,6.121,0,0,1,.8.052,2.195,2.195,0,0,1,.713.213,1.335,1.335,0,0,1,.512.46,1.433,1.433,0,0,1,.194.79,1.291,1.291,0,0,1-.266.875,1.553,1.553,0,0,1-.673.447,3.211,3.211,0,0,1-.894.168q-0.486.025-.939,0.026h-0.972V99.837ZM204.613,108H205.7v-3.95l3.42-5.22h-1.308l-2.656,4.145-2.577-4.145h-1.386l3.419,5.22V108Zm14.359-.129a4.625,4.625,0,0,0,1.515-1,4.513,4.513,0,0,0,1-1.529,5.374,5.374,0,0,0,0-3.847,4.509,4.509,0,0,0-1-1.528,4.617,4.617,0,0,0-1.515-1,5.283,5.283,0,0,0-3.847,0,4.632,4.632,0,0,0-1.516,1,4.507,4.507,0,0,0-1,1.528,5.374,5.374,0,0,0,0,3.847,4.511,4.511,0,0,0,1,1.529,4.64,4.64,0,0,0,1.516,1A5.291,5.291,0,0,0,218.972,107.868Zm-3.394-.946a3.443,3.443,0,0,1-1.146-.816,3.714,3.714,0,0,1-.745-1.211,4.267,4.267,0,0,1,0-2.966,3.714,3.714,0,0,1,.745-1.211,3.448,3.448,0,0,1,1.146-.816,3.776,3.776,0,0,1,2.94,0,3.462,3.462,0,0,1,1.147.816,3.728,3.728,0,0,1,.744,1.211,4.267,4.267,0,0,1,0,2.966,3.728,3.728,0,0,1-.744,1.211,3.457,3.457,0,0,1-1.147.816A3.775,3.775,0,0,1,215.578,106.922Zm17.532-8.1h-1.088v5.518a4.872,4.872,0,0,1-.117,1.075,2.671,2.671,0,0,1-.388.919,1.97,1.97,0,0,1-.726.641,2.828,2.828,0,0,1-2.28,0,1.959,1.959,0,0,1-.725-0.641,2.652,2.652,0,0,1-.388-0.919,4.872,4.872,0,0,1-.117-1.075V98.827h-1.088V104.5a5.251,5.251,0,0,0,.188,1.425,3.294,3.294,0,0,0,.6,1.185,2.883,2.883,0,0,0,1.068.816,4.4,4.4,0,0,0,3.213,0,2.883,2.883,0,0,0,1.068-.816,3.294,3.294,0,0,0,.6-1.185,5.291,5.291,0,0,0,.188-1.425V98.827Z"/>
</svg>
