<svg xmlns="http://www.w3.org/2000/svg" width="300" height="186" viewBox="0 0 300 186">
  <metadata><?xpacket begin="﻿" id="W5M0MpCehiHzreSzNTczkc9d"?>
<x:xmpmeta xmlns:x="adobe:ns:meta/" x:xmptk="Adobe XMP Core 5.6-c140 79.160451, 2017/05/06-01:08:21        ">
   <rdf:RDF xmlns:rdf="http://www.w3.org/1999/02/22-rdf-syntax-ns#">
      <rdf:Description rdf:about=""/>
   </rdf:RDF>
</x:xmpmeta>
                                                                                                    
                                                                                                    
                                                                                                    
                                                                                                    
                                                                                                    
                                                                                                    
                                                                                                    
                                                                                                    
                                                                                                    
                                                                                                    
                                                                                                    
                                                                                                    
                                                                                                    
                                                                                                    
                                                                                                    
                                                                                                    
                                                                                                    
                                                                                                    
                                                                                                    
                                                                                                    
                           
<?xpacket end="w"?></metadata>
<defs>
    <style>
      .cls-1 {
        fill: #fff;
      }

      .cls-2 {
        fill: #f0f0f0;
      }

      .cls-3 {
        fill-rule: evenodd;
      }
    </style>
  </defs>
  <rect class="cls-1" width="299" height="186"/>
  <rect class="cls-2" x="57" width="186" height="186"/>
  <path id="CHOOSE_THE_BEST_TOOL_FOR_YOUR_USE-CASE" data-name="CHOOSE THE BEST           TOOL FOR YOUR           USE-CASE" class="cls-3" d="M83.844,79.973a3.307,3.307,0,0,0-1.444-1.1,4.887,4.887,0,0,0-1.794-.337,4.538,4.538,0,0,0-4.32,2.927,5.162,5.162,0,0,0-.343,1.891,5.1,5.1,0,0,0,.356,1.93,4.619,4.619,0,0,0,.985,1.522,4.524,4.524,0,0,0,1.483,1,4.663,4.663,0,0,0,1.839.363,4.816,4.816,0,0,0,1.975-.388,3.774,3.774,0,0,0,1.5-1.218l-0.816-.687a3.408,3.408,0,0,1-1.153.952,3.555,3.555,0,0,1-2.921.032,3.37,3.37,0,0,1-1.1-.81,3.735,3.735,0,0,1-.719-1.2,4.233,4.233,0,0,1-.259-1.5,4.087,4.087,0,0,1,.259-1.444,3.833,3.833,0,0,1,.725-1.218,3.521,3.521,0,0,1,1.108-.835,3.177,3.177,0,0,1,1.405-.311,3.019,3.019,0,0,1,1.269.278,2.624,2.624,0,0,1,1.023.835Zm4.391,7.966h1.088V83.665h4.9v4.274h1.088V78.768H94.219v3.886h-4.9V78.768H88.235v9.171Zm18.179-.129a4.612,4.612,0,0,0,1.515-1,4.51,4.51,0,0,0,1-1.528,5.375,5.375,0,0,0,0-3.847,4.512,4.512,0,0,0-1-1.528,4.615,4.615,0,0,0-1.515-1,5.283,5.283,0,0,0-3.847,0,4.63,4.63,0,0,0-1.516,1,4.509,4.509,0,0,0-1,1.528,5.373,5.373,0,0,0,0,3.847,4.507,4.507,0,0,0,1,1.528,4.627,4.627,0,0,0,1.516,1A5.283,5.283,0,0,0,106.414,87.81Zm-3.394-.946a3.459,3.459,0,0,1-1.146-.816,3.717,3.717,0,0,1-.745-1.211,4.283,4.283,0,0,1,0-2.966,3.722,3.722,0,0,1,.745-1.211,3.464,3.464,0,0,1,1.146-.816,3.778,3.778,0,0,1,2.941,0,3.485,3.485,0,0,1,1.146.816,3.739,3.739,0,0,1,.745,1.211,4.283,4.283,0,0,1,0,2.966,3.735,3.735,0,0,1-.745,1.211,3.479,3.479,0,0,1-1.146.816A3.778,3.778,0,0,1,103.02,86.864Zm16.839,0.946a4.627,4.627,0,0,0,1.516-1,4.522,4.522,0,0,0,1-1.528,5.375,5.375,0,0,0,0-3.847,4.524,4.524,0,0,0-1-1.528,4.63,4.63,0,0,0-1.516-1,5.283,5.283,0,0,0-3.847,0,4.615,4.615,0,0,0-1.515,1,4.512,4.512,0,0,0-1,1.528,5.375,5.375,0,0,0,0,3.847,4.51,4.51,0,0,0,1,1.528,4.612,4.612,0,0,0,1.515,1A5.283,5.283,0,0,0,119.859,87.81Zm-3.394-.946a3.469,3.469,0,0,1-1.146-.816,3.735,3.735,0,0,1-.745-1.211,4.283,4.283,0,0,1,0-2.966,3.739,3.739,0,0,1,.745-1.211,3.475,3.475,0,0,1,1.146-.816,3.778,3.778,0,0,1,2.941,0,3.475,3.475,0,0,1,1.146.816,3.739,3.739,0,0,1,.745,1.211,4.283,4.283,0,0,1,0,2.966,3.735,3.735,0,0,1-.745,1.211,3.469,3.469,0,0,1-1.146.816A3.778,3.778,0,0,1,116.465,86.864Zm15.9-7.254a2.783,2.783,0,0,0-1.146-.835,4.227,4.227,0,0,0-2.584-.071,3.184,3.184,0,0,0-1,.5,2.362,2.362,0,0,0-.958,1.975,2.467,2.467,0,0,0,.175.978,2.092,2.092,0,0,0,.479.7,2.775,2.775,0,0,0,.719.492,6.643,6.643,0,0,0,.907.356l1.062,0.363a3.41,3.41,0,0,1,.751.35,1.277,1.277,0,0,1,.44.46,1.463,1.463,0,0,1,.143.693,1.293,1.293,0,0,1-.182.686,1.656,1.656,0,0,1-.466.5,2.142,2.142,0,0,1-.641.3,2.533,2.533,0,0,1-1.833-.155,1.92,1.92,0,0,1-.829-0.764l-0.932.764a2.331,2.331,0,0,0,.557.589,3.08,3.08,0,0,0,.693.389,3.851,3.851,0,0,0,.77.22,4.605,4.605,0,0,0,.8.071,4.484,4.484,0,0,0,1.205-.162,3.113,3.113,0,0,0,1.03-.492,2.414,2.414,0,0,0,.991-2.027,2.467,2.467,0,0,0-.227-1.12,2.179,2.179,0,0,0-.609-0.745,3.471,3.471,0,0,0-.881-0.492q-0.5-.194-1.029-0.363a8.169,8.169,0,0,1-.92-0.337,2.35,2.35,0,0,1-.6-0.363,1.148,1.148,0,0,1-.317-0.434,1.452,1.452,0,0,1-.1-0.55,1.4,1.4,0,0,1,.168-0.7,1.358,1.358,0,0,1,.447-0.479,2.109,2.109,0,0,1,.628-0.272,2.83,2.83,0,0,1,.712-0.091,2.31,2.31,0,0,1,.946.2,1.6,1.6,0,0,1,.725.641Zm4.6,8.329h6v-1.01h-4.91V83.665h4.366v-1.01h-4.366V79.779h4.677v-1.01h-5.765v9.171Zm22.72-9.171h-7.15v1.01h3.031v8.16h1.088v-8.16h3.031v-1.01Zm3.924,9.171H164.7V83.665h4.9v4.274h1.088V78.768h-1.088v3.886h-4.9V78.768h-1.088v9.171Zm12,0h6v-1.01H176.69V83.665h4.365v-1.01H176.69V79.779h4.676v-1.01H175.6v9.171Zm16.566,0H194.9a7.12,7.12,0,0,0,1.276-.117,3.612,3.612,0,0,0,1.153-.408,2.367,2.367,0,0,0,.829-0.784,2.283,2.283,0,0,0,.317-1.256,2.309,2.309,0,0,0-.155-0.848,2.168,2.168,0,0,0-.434-0.693,2.265,2.265,0,0,0-.661-0.486,2.306,2.306,0,0,0-.822-0.227V83.095a2.344,2.344,0,0,0,1.172-.745,2.015,2.015,0,0,0,.434-1.328,1.978,1.978,0,0,0-.266-1.062,2.126,2.126,0,0,0-.693-0.693,3.023,3.023,0,0,0-.971-0.382,5.305,5.305,0,0,0-1.114-.117h-2.8v9.171Zm1.088-8.16h1.619a4.446,4.446,0,0,1,.719.058,1.933,1.933,0,0,1,.635.214,1.236,1.236,0,0,1,.447.421,1.279,1.279,0,0,1,.168.693,1.443,1.443,0,0,1-.181.771,1.275,1.275,0,0,1-.479.453,1.951,1.951,0,0,1-.667.214,5.451,5.451,0,0,1-.758.052h-1.5V79.779Zm0,3.886h1.865a4.182,4.182,0,0,1,.81.078,2.008,2.008,0,0,1,.7.272,1.5,1.5,0,0,1,.493.518,1.581,1.581,0,0,1,.188.8,1.352,1.352,0,0,1-.195.745,1.506,1.506,0,0,1-.511.492,2.36,2.36,0,0,1-.713.272,3.8,3.8,0,0,1-.8.084h-1.84V83.665Zm9.715,4.274h6v-1.01h-4.909V83.665h4.365v-1.01h-4.365V79.779h4.676v-1.01h-5.764v9.171ZM218.54,79.61a2.783,2.783,0,0,0-1.146-.835,4.227,4.227,0,0,0-2.584-.071,3.184,3.184,0,0,0-1,.5,2.362,2.362,0,0,0-.958,1.975,2.467,2.467,0,0,0,.175.978,2.092,2.092,0,0,0,.479.7,2.775,2.775,0,0,0,.719.492,6.68,6.68,0,0,0,.906.356l1.063,0.363a3.41,3.41,0,0,1,.751.35,1.277,1.277,0,0,1,.44.46,1.463,1.463,0,0,1,.143.693,1.293,1.293,0,0,1-.182.686,1.656,1.656,0,0,1-.466.5,2.142,2.142,0,0,1-.641.3,2.533,2.533,0,0,1-1.833-.155,1.92,1.92,0,0,1-.829-0.764l-0.933.764a2.366,2.366,0,0,0,.557.589,3.125,3.125,0,0,0,.693.389,3.88,3.88,0,0,0,.771.22,4.6,4.6,0,0,0,.8.071,4.484,4.484,0,0,0,1.205-.162,3.123,3.123,0,0,0,1.03-.492,2.414,2.414,0,0,0,.991-2.027,2.467,2.467,0,0,0-.227-1.12,2.179,2.179,0,0,0-.609-0.745,3.471,3.471,0,0,0-.881-0.492q-0.5-.194-1.03-0.363a8.219,8.219,0,0,1-.919-0.337,2.35,2.35,0,0,1-.6-0.363,1.148,1.148,0,0,1-.317-0.434,1.452,1.452,0,0,1-.1-0.55,1.4,1.4,0,0,1,.168-0.7,1.358,1.358,0,0,1,.447-0.479,2.109,2.109,0,0,1,.628-0.272,2.83,2.83,0,0,1,.712-0.091,2.313,2.313,0,0,1,.946.2,1.6,1.6,0,0,1,.725.641Zm10.751-.842h-7.15v1.01h3.031v8.16h1.088v-8.16h3.031v-1.01ZM91.738,98.827h-7.15v1.01h3.031V108h1.088v-8.16h3.031v-1.01Zm10.11,9.041a4.625,4.625,0,0,0,1.515-1,4.513,4.513,0,0,0,1-1.529,5.374,5.374,0,0,0,0-3.847,4.509,4.509,0,0,0-1-1.528,4.617,4.617,0,0,0-1.515-1,5.284,5.284,0,0,0-3.847,0,4.625,4.625,0,0,0-1.515,1,4.508,4.508,0,0,0-1,1.528,5.372,5.372,0,0,0,0,3.847,4.512,4.512,0,0,0,1,1.529,4.633,4.633,0,0,0,1.515,1A5.292,5.292,0,0,0,101.848,107.868Zm-3.394-.946a3.45,3.45,0,0,1-1.146-.816,3.718,3.718,0,0,1-.745-1.211,4.275,4.275,0,0,1,0-2.966,3.718,3.718,0,0,1,.745-1.211,3.455,3.455,0,0,1,1.146-.816,3.776,3.776,0,0,1,2.94,0,3.462,3.462,0,0,1,1.147.816,3.728,3.728,0,0,1,.744,1.211,4.267,4.267,0,0,1,0,2.966,3.728,3.728,0,0,1-.744,1.211,3.457,3.457,0,0,1-1.147.816A3.774,3.774,0,0,1,98.454,106.922Zm16.839,0.946a4.625,4.625,0,0,0,1.515-1,4.513,4.513,0,0,0,1-1.529,5.374,5.374,0,0,0,0-3.847,4.509,4.509,0,0,0-1-1.528,4.617,4.617,0,0,0-1.515-1,5.283,5.283,0,0,0-3.847,0,4.632,4.632,0,0,0-1.516,1,4.507,4.507,0,0,0-1,1.528,5.374,5.374,0,0,0,0,3.847,4.511,4.511,0,0,0,1,1.529,4.64,4.64,0,0,0,1.516,1A5.291,5.291,0,0,0,115.293,107.868Zm-3.394-.946a3.443,3.443,0,0,1-1.146-.816,3.714,3.714,0,0,1-.745-1.211,4.282,4.282,0,0,1,0-2.966,3.714,3.714,0,0,1,.745-1.211A3.448,3.448,0,0,1,111.9,99.9a3.778,3.778,0,0,1,2.941,0,3.468,3.468,0,0,1,1.146.816,3.731,3.731,0,0,1,.745,1.211,4.282,4.282,0,0,1,0,2.966,3.731,3.731,0,0,1-.745,1.211,3.463,3.463,0,0,1-1.146.816A3.777,3.777,0,0,1,111.9,106.922ZM122.553,108h5.285v-1.01h-4.2v-8.16h-1.088V108Zm15.362,0H139v-4.119h4.275v-1.01H139V99.837h4.6v-1.01h-5.687V108Zm16.029-.129a4.64,4.64,0,0,0,1.516-1,4.511,4.511,0,0,0,1-1.529,5.36,5.36,0,0,0,0-3.847,4.507,4.507,0,0,0-1-1.528,4.632,4.632,0,0,0-1.516-1,5.283,5.283,0,0,0-3.847,0,4.627,4.627,0,0,0-1.515,1,4.492,4.492,0,0,0-1,1.528,5.36,5.36,0,0,0,0,3.847,4.5,4.5,0,0,0,1,1.529,4.635,4.635,0,0,0,1.515,1A5.291,5.291,0,0,0,153.944,107.868Zm-3.393-.946a3.457,3.457,0,0,1-1.147-.816,3.728,3.728,0,0,1-.744-1.211,4.267,4.267,0,0,1,0-2.966,3.728,3.728,0,0,1,.744-1.211,3.462,3.462,0,0,1,1.147-.816,3.776,3.776,0,0,1,2.94,0,3.448,3.448,0,0,1,1.146.816,3.714,3.714,0,0,1,.745,1.211,4.267,4.267,0,0,1,0,2.966,3.714,3.714,0,0,1-.745,1.211,3.443,3.443,0,0,1-1.146.816A3.775,3.775,0,0,1,150.551,106.922ZM161.205,108h1.088v-4.119h1.4L166.178,108h1.335l-2.6-4.222a2.91,2.91,0,0,0,1.684-.79,2.235,2.235,0,0,0,.609-1.633,2.461,2.461,0,0,0-.324-1.353,2.126,2.126,0,0,0-.842-0.758,3.532,3.532,0,0,0-1.172-.337,11.145,11.145,0,0,0-1.315-.078h-2.344V108Zm1.088-8.16h1.528a6.137,6.137,0,0,1,.8.052,2.2,2.2,0,0,1,.712.213,1.328,1.328,0,0,1,.512.46,1.433,1.433,0,0,1,.194.79,1.291,1.291,0,0,1-.266.875,1.553,1.553,0,0,1-.673.447,3.211,3.211,0,0,1-.894.168q-0.486.025-.939,0.026h-0.971V99.837ZM180.168,108h1.088v-3.95l3.419-5.22h-1.308l-2.655,4.145-2.578-4.145h-1.386l3.42,5.22V108Zm14.358-.129a4.625,4.625,0,0,0,1.515-1,4.513,4.513,0,0,0,1-1.529,5.374,5.374,0,0,0,0-3.847,4.509,4.509,0,0,0-1-1.528,4.617,4.617,0,0,0-1.515-1,5.283,5.283,0,0,0-3.847,0,4.632,4.632,0,0,0-1.516,1,4.507,4.507,0,0,0-1,1.528,5.374,5.374,0,0,0,0,3.847,4.511,4.511,0,0,0,1,1.529,4.64,4.64,0,0,0,1.516,1A5.291,5.291,0,0,0,194.526,107.868Zm-3.394-.946a3.443,3.443,0,0,1-1.146-.816,3.714,3.714,0,0,1-.745-1.211,4.267,4.267,0,0,1,0-2.966,3.714,3.714,0,0,1,.745-1.211,3.448,3.448,0,0,1,1.146-.816,3.776,3.776,0,0,1,2.94,0,3.462,3.462,0,0,1,1.147.816,3.748,3.748,0,0,1,.745,1.211,4.282,4.282,0,0,1,0,2.966,3.748,3.748,0,0,1-.745,1.211,3.457,3.457,0,0,1-1.147.816A3.775,3.775,0,0,1,191.132,106.922Zm17.532-8.1h-1.088v5.518a4.872,4.872,0,0,1-.117,1.075,2.652,2.652,0,0,1-.388.919,1.962,1.962,0,0,1-.726.641,2.825,2.825,0,0,1-2.279,0,1.962,1.962,0,0,1-.726-0.641,2.652,2.652,0,0,1-.388-0.919,4.872,4.872,0,0,1-.117-1.075V98.827h-1.088V104.5a5.291,5.291,0,0,0,.188,1.425,3.294,3.294,0,0,0,.6,1.185,2.883,2.883,0,0,0,1.068.816,4.4,4.4,0,0,0,3.213,0,2.883,2.883,0,0,0,1.068-.816,3.294,3.294,0,0,0,.6-1.185,5.291,5.291,0,0,0,.188-1.425V98.827Zm4.883,9.17h1.088v-4.119h1.4L218.521,108h1.334l-2.6-4.222a2.913,2.913,0,0,0,1.684-.79,2.238,2.238,0,0,0,.608-1.633,2.47,2.47,0,0,0-.323-1.353,2.126,2.126,0,0,0-.842-0.758,3.545,3.545,0,0,0-1.173-.337,11.128,11.128,0,0,0-1.314-.078h-2.345V108Zm1.088-8.16h1.529a6.121,6.121,0,0,1,.8.052,2.195,2.195,0,0,1,.713.213,1.325,1.325,0,0,1,.511.46,1.424,1.424,0,0,1,.195.79,1.291,1.291,0,0,1-.266.875,1.556,1.556,0,0,1-.674.447,3.2,3.2,0,0,1-.893.168q-0.486.025-.939,0.026h-0.972V99.837Zm-94.2,19.048h-1.088V124.4a4.865,4.865,0,0,1-.116,1.075,2.666,2.666,0,0,1-.389.92,1.977,1.977,0,0,1-.725.641,2.838,2.838,0,0,1-2.28,0,1.977,1.977,0,0,1-.725-0.641,2.666,2.666,0,0,1-.389-0.92,4.865,4.865,0,0,1-.116-1.075v-5.518h-1.088v5.673a5.291,5.291,0,0,0,.187,1.425,3.294,3.294,0,0,0,.6,1.185,2.857,2.857,0,0,0,1.069.816,4.381,4.381,0,0,0,3.212,0,2.857,2.857,0,0,0,1.069-.816,3.31,3.31,0,0,0,.6-1.185,5.291,5.291,0,0,0,.187-1.425v-5.673Zm10.13,0.842a2.782,2.782,0,0,0-1.147-.836,4.236,4.236,0,0,0-2.584-.071,3.175,3.175,0,0,0-1,.5,2.357,2.357,0,0,0-.959,1.975,2.467,2.467,0,0,0,.175.978,2.116,2.116,0,0,0,.479.7,2.8,2.8,0,0,0,.719.492,6.747,6.747,0,0,0,.907.356l1.062,0.363a3.385,3.385,0,0,1,.751.349,1.276,1.276,0,0,1,.441.46,1.463,1.463,0,0,1,.142.693,1.3,1.3,0,0,1-.181.687,1.666,1.666,0,0,1-.466.5,2.138,2.138,0,0,1-.642.3,2.536,2.536,0,0,1-1.832-.156,1.9,1.9,0,0,1-.829-0.764l-0.933.764a2.324,2.324,0,0,0,.557.59,3.11,3.11,0,0,0,.693.388,3.9,3.9,0,0,0,.771.221,4.627,4.627,0,0,0,.8.071,4.472,4.472,0,0,0,1.2-.162,3.121,3.121,0,0,0,1.03-.492,2.416,2.416,0,0,0,.991-2.028,2.468,2.468,0,0,0-.227-1.12,2.191,2.191,0,0,0-.608-0.745A3.518,3.518,0,0,0,129,123.25q-0.5-.194-1.03-0.363a8.276,8.276,0,0,1-.92-0.336,2.409,2.409,0,0,1-.6-0.363,1.173,1.173,0,0,1-.317-0.434,1.453,1.453,0,0,1-.1-0.551,1.4,1.4,0,0,1,.168-0.7,1.353,1.353,0,0,1,.447-0.479,2.1,2.1,0,0,1,.628-0.272,2.811,2.811,0,0,1,.713-0.091,2.305,2.305,0,0,1,.945.2,1.606,1.606,0,0,1,.726.641Zm4.6,8.329h6v-1.011h-4.909v-3.264h4.365v-1.01h-4.365V119.9h4.676v-1.01h-5.764v9.171Zm9.753-2.643h3.174v-0.932h-3.174v0.932Zm14.9-5.323a3.3,3.3,0,0,0-1.444-1.1,4.876,4.876,0,0,0-1.794-.337,4.625,4.625,0,0,0-1.878.375,4.521,4.521,0,0,0-2.442,2.552,5.159,5.159,0,0,0-.343,1.891,5.088,5.088,0,0,0,.356,1.93,4.6,4.6,0,0,0,.984,1.522,4.534,4.534,0,0,0,1.483,1,4.658,4.658,0,0,0,1.84.363,4.814,4.814,0,0,0,1.975-.389,3.773,3.773,0,0,0,1.5-1.217L159.229,126a3.393,3.393,0,0,1-1.153.952,3.561,3.561,0,0,1-2.921.033,3.392,3.392,0,0,1-1.1-.81,3.736,3.736,0,0,1-.718-1.205,4.229,4.229,0,0,1-.26-1.5,4.087,4.087,0,0,1,.26-1.444,3.822,3.822,0,0,1,.725-1.218,3.532,3.532,0,0,1,1.107-.835,3.184,3.184,0,0,1,1.406-.311,3.013,3.013,0,0,1,1.269.279,2.611,2.611,0,0,1,1.023.835Zm3.329,7.966h1.23l0.946-2.254H169.9l0.933,2.254H172.1l-3.9-9.171h-1.023Zm6.347-3.265h-3.744l1.9-4.507h0.026Zm11.722-5.064a2.786,2.786,0,0,0-1.146-.836,4.236,4.236,0,0,0-2.584-.071,3.18,3.18,0,0,0-1,.5,2.36,2.36,0,0,0-.958,1.975,2.467,2.467,0,0,0,.175.978,2.1,2.1,0,0,0,.479.7,2.787,2.787,0,0,0,.719.492,6.732,6.732,0,0,0,.906.356l1.063,0.363a3.406,3.406,0,0,1,.751.349,1.281,1.281,0,0,1,.44.46,1.463,1.463,0,0,1,.143.693,1.3,1.3,0,0,1-.182.687,1.653,1.653,0,0,1-.466.5,2.143,2.143,0,0,1-.641.3,2.539,2.539,0,0,1-1.833-.156,1.914,1.914,0,0,1-.829-0.764l-0.932.764a2.324,2.324,0,0,0,.557.59,3.082,3.082,0,0,0,.692.388,3.922,3.922,0,0,0,.771.221,4.644,4.644,0,0,0,.8.071,4.48,4.48,0,0,0,1.205-.162,3.13,3.13,0,0,0,1.03-.492,2.508,2.508,0,0,0,.719-0.836,2.808,2.808,0,0,0,.045-2.312,2.182,2.182,0,0,0-.609-0.745,3.5,3.5,0,0,0-.881-0.492q-0.5-.194-1.029-0.363a8.2,8.2,0,0,1-.92-0.336,2.39,2.39,0,0,1-.6-0.363,1.151,1.151,0,0,1-.317-0.434,1.453,1.453,0,0,1-.1-0.551,1.4,1.4,0,0,1,.168-0.7,1.353,1.353,0,0,1,.447-0.479,2.093,2.093,0,0,1,.628-0.272,2.8,2.8,0,0,1,.712-0.091,2.307,2.307,0,0,1,.946.2,1.6,1.6,0,0,1,.725.641Zm4.6,8.329h6v-1.011H186.9v-3.264h4.366v-1.01H186.9V119.9h4.676v-1.01h-5.764v9.171Z"/>
</svg>
