<svg xmlns="http://www.w3.org/2000/svg" width="300" height="186" viewBox="0 0 300 186">
  <metadata><?xpacket begin="﻿" id="W5M0MpCehiHzreSzNTczkc9d"?>
<x:xmpmeta xmlns:x="adobe:ns:meta/" x:xmptk="Adobe XMP Core 5.6-c140 79.160451, 2017/05/06-01:08:21        ">
   <rdf:RDF xmlns:rdf="http://www.w3.org/1999/02/22-rdf-syntax-ns#">
      <rdf:Description rdf:about=""/>
   </rdf:RDF>
</x:xmpmeta>
                                                                                                    
                                                                                                    
                                                                                                    
                                                                                                    
                                                                                                    
                                                                                                    
                                                                                                    
                                                                                                    
                                                                                                    
                                                                                                    
                                                                                                    
                                                                                                    
                                                                                                    
                                                                                                    
                                                                                                    
                                                                                                    
                                                                                                    
                                                                                                    
                                                                                                    
                                                                                                    
                           
<?xpacket end="w"?></metadata>
<defs>
    <style>
      .cls-1 {
        fill: #fff;
      }

      .cls-2 {
        fill: #f0f0f0;
      }

      .cls-3 {
        fill-rule: evenodd;
      }
    </style>
  </defs>
  <rect class="cls-1" width="299" height="186"/>
  <rect class="cls-2" x="57" width="186" height="186"/>
  <path id="BROWSE_FREE_OPEN_SOURCE_TOOLS" data-name="BROWSE FREE &amp;            OPEN SOURCE TOOLS" class="cls-3" d="M81.915,87.939h2.733a7.123,7.123,0,0,0,1.276-.117,3.619,3.619,0,0,0,1.153-.408,2.365,2.365,0,0,0,.829-0.784,2.54,2.54,0,0,0,.162-2.1,2.169,2.169,0,0,0-.434-0.693,2.265,2.265,0,0,0-.661-0.486,2.31,2.31,0,0,0-.822-0.227V83.095a2.346,2.346,0,0,0,1.172-.745,2.014,2.014,0,0,0,.434-1.328,1.98,1.98,0,0,0-.266-1.062,2.128,2.128,0,0,0-.693-0.693,3.029,3.029,0,0,0-.972-0.382,5.3,5.3,0,0,0-1.114-.117h-2.8v9.171ZM83,79.779h1.619a4.454,4.454,0,0,1,.719.058,1.935,1.935,0,0,1,.635.214,1.233,1.233,0,0,1,.447.421,1.277,1.277,0,0,1,.168.693,1.445,1.445,0,0,1-.181.771,1.272,1.272,0,0,1-.479.453,1.949,1.949,0,0,1-.667.214,5.436,5.436,0,0,1-.758.052H83V79.779Zm0,3.886h1.865a4.187,4.187,0,0,1,.809.078,2.007,2.007,0,0,1,.7.272,1.5,1.5,0,0,1,.492.518,1.58,1.58,0,0,1,.188.8,1.355,1.355,0,0,1-.194.745,1.508,1.508,0,0,1-.512.492,2.351,2.351,0,0,1-.712.272,3.809,3.809,0,0,1-.8.084H83V83.665Zm9.715,4.274h1.088V83.82h1.4l2.487,4.119h1.334l-2.6-4.223a2.909,2.909,0,0,0,1.684-.79,2.233,2.233,0,0,0,.609-1.632,2.463,2.463,0,0,0-.324-1.354,2.123,2.123,0,0,0-.842-0.758,3.537,3.537,0,0,0-1.172-.337,11.136,11.136,0,0,0-1.315-.078H92.717v9.171Zm1.088-8.16h1.528a6.147,6.147,0,0,1,.8.052,2.185,2.185,0,0,1,.712.214,1.315,1.315,0,0,1,.512.46,1.428,1.428,0,0,1,.194.79,1.291,1.291,0,0,1-.266.874,1.553,1.553,0,0,1-.673.447,3.21,3.21,0,0,1-.894.168q-0.486.026-.939,0.026H93.806V79.779Zm15.654,8.031a4.627,4.627,0,0,0,1.516-1,4.522,4.522,0,0,0,1-1.528,5.375,5.375,0,0,0,0-3.847,4.524,4.524,0,0,0-1-1.528,4.63,4.63,0,0,0-1.516-1,5.283,5.283,0,0,0-3.847,0,4.63,4.63,0,0,0-1.516,1,4.524,4.524,0,0,0-1,1.528,5.375,5.375,0,0,0,0,3.847,4.522,4.522,0,0,0,1,1.528,4.627,4.627,0,0,0,1.516,1A5.283,5.283,0,0,0,109.459,87.81Zm-3.394-.946a3.459,3.459,0,0,1-1.146-.816,3.717,3.717,0,0,1-.745-1.211,4.283,4.283,0,0,1,0-2.966,3.722,3.722,0,0,1,.745-1.211,3.464,3.464,0,0,1,1.146-.816,3.778,3.778,0,0,1,2.941,0,3.485,3.485,0,0,1,1.146.816,3.739,3.739,0,0,1,.745,1.211,4.283,4.283,0,0,1,0,2.966,3.735,3.735,0,0,1-.745,1.211,3.479,3.479,0,0,1-1.146.816A3.778,3.778,0,0,1,106.065,86.864Zm12.273,1.075h1.192l2.28-7.772h0.026l2.266,7.772h1.179l2.694-9.171h-1.14l-2.124,7.616h-0.026l-2.241-7.616h-1.217l-2.254,7.616h-0.026l-2.085-7.616h-1.2Zm18.743-8.329a2.783,2.783,0,0,0-1.146-.835,4.227,4.227,0,0,0-2.584-.071,3.184,3.184,0,0,0-1,.5,2.362,2.362,0,0,0-.958,1.975,2.467,2.467,0,0,0,.175.978,2.092,2.092,0,0,0,.479.7,2.775,2.775,0,0,0,.719.492,6.68,6.68,0,0,0,.906.356l1.063,0.363a3.41,3.41,0,0,1,.751.35,1.277,1.277,0,0,1,.44.46,1.463,1.463,0,0,1,.143.693,1.293,1.293,0,0,1-.182.686,1.656,1.656,0,0,1-.466.5,2.142,2.142,0,0,1-.641.3,2.533,2.533,0,0,1-1.833-.155,1.92,1.92,0,0,1-.829-0.764l-0.932.764a2.331,2.331,0,0,0,.557.589,3.1,3.1,0,0,0,.692.389,3.88,3.88,0,0,0,.771.22,4.605,4.605,0,0,0,.8.071,4.484,4.484,0,0,0,1.205-.162,3.123,3.123,0,0,0,1.03-.492,2.414,2.414,0,0,0,.991-2.027,2.467,2.467,0,0,0-.227-1.12,2.179,2.179,0,0,0-.609-0.745,3.471,3.471,0,0,0-.881-0.492q-0.5-.194-1.029-0.363a8.169,8.169,0,0,1-.92-0.337,2.35,2.35,0,0,1-.6-0.363,1.148,1.148,0,0,1-.317-0.434,1.452,1.452,0,0,1-.1-0.55,1.4,1.4,0,0,1,.168-0.7,1.358,1.358,0,0,1,.447-0.479,2.109,2.109,0,0,1,.628-0.272,2.83,2.83,0,0,1,.712-0.091,2.31,2.31,0,0,1,.946.2,1.6,1.6,0,0,1,.725.641Zm4.6,8.329h6v-1.01h-4.91V83.665h4.366v-1.01h-4.366V79.779h4.676v-1.01h-5.764v9.171Zm16.567,0h1.088V83.82h4.275V82.81h-4.275V79.779h4.6v-1.01h-5.686v9.171Zm9.844,0h1.088V83.82h1.4l2.487,4.119H174.4l-2.6-4.223a2.911,2.911,0,0,0,1.684-.79,2.236,2.236,0,0,0,.608-1.632,2.47,2.47,0,0,0-.323-1.354,2.126,2.126,0,0,0-.842-0.758,3.545,3.545,0,0,0-1.173-.337,11.128,11.128,0,0,0-1.314-.078H168.09v9.171Zm1.088-8.16h1.529a6.139,6.139,0,0,1,.8.052,2.186,2.186,0,0,1,.713.214,1.313,1.313,0,0,1,.511.46,1.424,1.424,0,0,1,.195.79,1.291,1.291,0,0,1-.266.874,1.552,1.552,0,0,1-.673.447,3.211,3.211,0,0,1-.894.168q-0.486.026-.939,0.026h-0.972V79.779Zm9.469,8.16h6v-1.01h-4.909V83.665H184.1v-1.01h-4.365V79.779h4.676v-1.01h-5.764v9.171Zm10.323,0h6v-1.01h-4.909V83.665h4.365v-1.01h-4.365V79.779h4.676v-1.01H188.97v9.171Zm23.108,0h1.49l-2.1-2.15,1.762-2.824H212l-1.23,2.06-1.943-2.059a7.666,7.666,0,0,0,.693-0.408,3.958,3.958,0,0,0,.622-0.505,2.385,2.385,0,0,0,.453-0.635,1.762,1.762,0,0,0,.175-0.784,2.047,2.047,0,0,0-.182-0.887,1.771,1.771,0,0,0-.5-0.635,2.242,2.242,0,0,0-.732-0.382,2.945,2.945,0,0,0-.881-0.129,2.98,2.98,0,0,0-.907.136,2.247,2.247,0,0,0-.751.4,1.966,1.966,0,0,0-.518.661,2.007,2.007,0,0,0-.194.9,2.112,2.112,0,0,0,.324,1.166,5.649,5.649,0,0,0,.777.959,5.532,5.532,0,0,0-.784.447,3.231,3.231,0,0,0-.648.583,2.674,2.674,0,0,0-.44.738,2.383,2.383,0,0,0-.162.887,2.468,2.468,0,0,0,.24,1.108,2.539,2.539,0,0,0,.634.822,2.721,2.721,0,0,0,.927.512,3.539,3.539,0,0,0,1.114.175,2.922,2.922,0,0,0,1.554-.389,4.656,4.656,0,0,0,1.192-1.088Zm-4.249-5.971a4.4,4.4,0,0,1-.433-0.538,1.146,1.146,0,0,1-.2-0.667,1.119,1.119,0,0,1,.388-0.9,1.393,1.393,0,0,1,.933-0.33,1.245,1.245,0,0,1,.822.285,0.971,0.971,0,0,1,.344.79,1.216,1.216,0,0,1-.143.6,1.69,1.69,0,0,1-.362.453,2.95,2.95,0,0,1-.493.35q-0.272.156-.531,0.3Zm2.345,3.925q-0.221.259-.447,0.486a3.492,3.492,0,0,1-.479.4,2.279,2.279,0,0,1-.551.278,1.95,1.95,0,0,1-.647.1,1.832,1.832,0,0,1-.687-0.129,1.779,1.779,0,0,1-.57-0.363,1.742,1.742,0,0,1-.388-0.544,1.628,1.628,0,0,1-.143-0.687,1.512,1.512,0,0,1,.143-0.661,1.92,1.92,0,0,1,.375-0.531,3.323,3.323,0,0,1,.518-0.421c0.19-.125.385-0.24,0.583-0.343Zm-142.6,21.976a4.632,4.632,0,0,0,1.516-1,4.513,4.513,0,0,0,1-1.529,5.372,5.372,0,0,0,0-3.847,4.509,4.509,0,0,0-1-1.528,4.624,4.624,0,0,0-1.516-1,5.283,5.283,0,0,0-3.847,0,4.625,4.625,0,0,0-1.515,1,4.508,4.508,0,0,0-1,1.528,5.372,5.372,0,0,0,0,3.847,4.512,4.512,0,0,0,1,1.529,4.633,4.633,0,0,0,1.515,1A5.291,5.291,0,0,0,67.569,107.868Zm-3.394-.946a3.45,3.45,0,0,1-1.146-.816,3.72,3.72,0,0,1-.745-1.211,4.275,4.275,0,0,1,0-2.966,3.72,3.72,0,0,1,.745-1.211,3.455,3.455,0,0,1,1.146-.816,3.777,3.777,0,0,1,2.94,0,3.459,3.459,0,0,1,1.146.816,3.725,3.725,0,0,1,.745,1.211,4.275,4.275,0,0,1,0,2.966,3.725,3.725,0,0,1-.745,1.211,3.454,3.454,0,0,1-1.146.816A3.775,3.775,0,0,1,64.176,106.922ZM74.83,108h1.088v-4.119h1.839a4.761,4.761,0,0,0,1.01-.116,3.007,3.007,0,0,0,.978-0.4,2.225,2.225,0,0,0,.732-0.777,2.847,2.847,0,0,0,.019-2.442,2.133,2.133,0,0,0-.712-0.777,3,3,0,0,0-1.023-.414,5.793,5.793,0,0,0-1.211-.123H74.83V108Zm1.088-8.16h1.839a2.217,2.217,0,0,1,1.328.369,1.54,1.54,0,0,1,0,2.293,2.217,2.217,0,0,1-1.328.369H75.918V99.837ZM85.153,108h6v-1.01H86.241v-3.264h4.365v-1.011H86.241V99.837h4.676v-1.01H85.153V108Zm10.323,0h1.088v-7.616H96.59L101.9,108h1.373v-9.17h-1.088v7.616H102.16l-5.311-7.616H95.476V108Zm24.209-8.328a2.783,2.783,0,0,0-1.146-.835,4.226,4.226,0,0,0-2.584-.071,3.182,3.182,0,0,0-1,.5,2.362,2.362,0,0,0-.958,1.976,2.467,2.467,0,0,0,.175.978,2.087,2.087,0,0,0,.479.7,2.738,2.738,0,0,0,.719.492,6.7,6.7,0,0,0,.907.357l1.062,0.362a3.451,3.451,0,0,1,.751.35,1.281,1.281,0,0,1,.44.46,1.463,1.463,0,0,1,.143.693,1.29,1.29,0,0,1-.182.686,1.657,1.657,0,0,1-.466.5,2.141,2.141,0,0,1-.641.3,2.489,2.489,0,0,1-.706.1,2.534,2.534,0,0,1-1.127-.259,1.92,1.92,0,0,1-.829-0.764l-0.932.764a2.319,2.319,0,0,0,.557.589,3.07,3.07,0,0,0,.693.389,3.825,3.825,0,0,0,.77.22,4.585,4.585,0,0,0,2.008-.09,3.1,3.1,0,0,0,1.03-.493,2.413,2.413,0,0,0,.991-2.027,2.465,2.465,0,0,0-.227-1.12,2.182,2.182,0,0,0-.609-0.745,3.44,3.44,0,0,0-.881-0.492q-0.5-.195-1.029-0.363a7.994,7.994,0,0,1-.92-0.337,2.361,2.361,0,0,1-.6-0.362,1.151,1.151,0,0,1-.317-0.434,1.456,1.456,0,0,1-.1-0.551,1.4,1.4,0,0,1,.168-0.7,1.359,1.359,0,0,1,.447-0.48,2.109,2.109,0,0,1,.628-0.272,2.83,2.83,0,0,1,.712-0.091,2.31,2.31,0,0,1,.946.2,1.6,1.6,0,0,1,.725.641Zm10.783,8.2a4.629,4.629,0,0,0,1.516-1,4.511,4.511,0,0,0,1-1.529,5.36,5.36,0,0,0,0-3.847,4.507,4.507,0,0,0-1-1.528,4.621,4.621,0,0,0-1.516-1,5.283,5.283,0,0,0-3.847,0,4.627,4.627,0,0,0-1.515,1,4.492,4.492,0,0,0-1,1.528,5.36,5.36,0,0,0,0,3.847,4.5,4.5,0,0,0,1,1.529,4.635,4.635,0,0,0,1.515,1A5.291,5.291,0,0,0,130.468,107.868Zm-3.393-.946a3.457,3.457,0,0,1-1.147-.816,3.728,3.728,0,0,1-.744-1.211,4.267,4.267,0,0,1,0-2.966,3.728,3.728,0,0,1,.744-1.211,3.462,3.462,0,0,1,1.147-.816,3.776,3.776,0,0,1,2.94,0,3.448,3.448,0,0,1,1.146.816,3.714,3.714,0,0,1,.745,1.211,4.267,4.267,0,0,1,0,2.966,3.714,3.714,0,0,1-.745,1.211,3.443,3.443,0,0,1-1.146.816A3.775,3.775,0,0,1,127.075,106.922Zm17.532-8.1h-1.088v5.518a4.872,4.872,0,0,1-.117,1.075,2.653,2.653,0,0,1-.389.919,1.959,1.959,0,0,1-.725.641,2.827,2.827,0,0,1-2.28,0,1.959,1.959,0,0,1-.725-0.641,2.672,2.672,0,0,1-.389-0.919,4.932,4.932,0,0,1-.116-1.075V98.827H137.69V104.5a5.251,5.251,0,0,0,.188,1.425,3.292,3.292,0,0,0,.6,1.185,2.886,2.886,0,0,0,1.069.816,4.394,4.394,0,0,0,3.212,0,2.878,2.878,0,0,0,1.069-.816,3.31,3.31,0,0,0,.6-1.185,5.291,5.291,0,0,0,.188-1.425V98.827ZM149.49,108h1.088v-4.119h1.4L154.464,108H155.8l-2.6-4.222a2.91,2.91,0,0,0,1.684-.79,2.235,2.235,0,0,0,.609-1.633,2.461,2.461,0,0,0-.324-1.353,2.126,2.126,0,0,0-.842-0.758,3.532,3.532,0,0,0-1.172-.337,11.132,11.132,0,0,0-1.315-.078H149.49V108Zm1.088-8.16h1.528a6.137,6.137,0,0,1,.8.052,2.189,2.189,0,0,1,.712.213,1.328,1.328,0,0,1,.512.46,1.433,1.433,0,0,1,.194.79,1.291,1.291,0,0,1-.265.875,1.556,1.556,0,0,1-.674.447,3.211,3.211,0,0,1-.894.168c-0.323.017-.637,0.026-0.939,0.026h-0.971V99.837Zm16.839,0.194a3.313,3.313,0,0,0-1.445-1.1,4.884,4.884,0,0,0-1.794-.337,4.538,4.538,0,0,0-4.32,2.927,5.176,5.176,0,0,0-.343,1.891,5.111,5.111,0,0,0,.356,1.93,4.64,4.64,0,0,0,.985,1.522,4.539,4.539,0,0,0,1.483,1,4.674,4.674,0,0,0,1.839.362,4.819,4.819,0,0,0,1.976-.388,3.774,3.774,0,0,0,1.5-1.218l-0.816-.686a3.423,3.423,0,0,1-1.153.952,3.556,3.556,0,0,1-2.921.032,3.364,3.364,0,0,1-1.1-.809,3.738,3.738,0,0,1-.719-1.2,4.233,4.233,0,0,1-.259-1.5,4.082,4.082,0,0,1,.259-1.444,3.859,3.859,0,0,1,.725-1.218,3.515,3.515,0,0,1,1.108-.835,3.176,3.176,0,0,1,1.405-.311,3.02,3.02,0,0,1,1.27.278,2.626,2.626,0,0,1,1.023.836ZM171.808,108h6v-1.01H172.9v-3.264h4.365v-1.011H172.9V99.837h4.676v-1.01h-5.764V108Zm22.719-9.17h-7.15v1.01h3.031V108H191.5v-8.16h3.031v-1.01Zm10.109,9.041a4.64,4.64,0,0,0,1.516-1,4.511,4.511,0,0,0,1-1.529,5.36,5.36,0,0,0,0-3.847,4.507,4.507,0,0,0-1-1.528,4.632,4.632,0,0,0-1.516-1,5.283,5.283,0,0,0-3.847,0,4.627,4.627,0,0,0-1.515,1,4.492,4.492,0,0,0-1,1.528,5.36,5.36,0,0,0,0,3.847,4.5,4.5,0,0,0,1,1.529,4.635,4.635,0,0,0,1.515,1A5.291,5.291,0,0,0,204.636,107.868Zm-3.393-.946a3.457,3.457,0,0,1-1.147-.816,3.728,3.728,0,0,1-.744-1.211,4.267,4.267,0,0,1,0-2.966,3.728,3.728,0,0,1,.744-1.211,3.462,3.462,0,0,1,1.147-.816,3.776,3.776,0,0,1,2.94,0,3.448,3.448,0,0,1,1.146.816,3.714,3.714,0,0,1,.745,1.211,4.267,4.267,0,0,1,0,2.966,3.714,3.714,0,0,1-.745,1.211,3.443,3.443,0,0,1-1.146.816A3.775,3.775,0,0,1,201.243,106.922Zm16.839,0.946a4.635,4.635,0,0,0,1.515-1,4.5,4.5,0,0,0,1-1.529,5.36,5.36,0,0,0,0-3.847,4.492,4.492,0,0,0-1-1.528,4.627,4.627,0,0,0-1.515-1,5.283,5.283,0,0,0-3.847,0,4.632,4.632,0,0,0-1.516,1,4.507,4.507,0,0,0-1,1.528,5.36,5.36,0,0,0,0,3.847,4.511,4.511,0,0,0,1,1.529,4.64,4.64,0,0,0,1.516,1A5.291,5.291,0,0,0,218.082,107.868Zm-3.394-.946a3.443,3.443,0,0,1-1.146-.816,3.714,3.714,0,0,1-.745-1.211,4.267,4.267,0,0,1,0-2.966,3.714,3.714,0,0,1,.745-1.211,3.448,3.448,0,0,1,1.146-.816,3.776,3.776,0,0,1,2.94,0,3.462,3.462,0,0,1,1.147.816,3.728,3.728,0,0,1,.744,1.211,4.267,4.267,0,0,1,0,2.966,3.728,3.728,0,0,1-.744,1.211,3.457,3.457,0,0,1-1.147.816A3.775,3.775,0,0,1,214.688,106.922ZM225.342,108h5.285v-1.01h-4.2v-8.16h-1.088V108Zm14.365-8.328a2.779,2.779,0,0,0-1.147-.835,4.226,4.226,0,0,0-2.584-.071,3.176,3.176,0,0,0-1,.5,2.359,2.359,0,0,0-.959,1.976,2.467,2.467,0,0,0,.175.978,2.1,2.1,0,0,0,.479.7,2.754,2.754,0,0,0,.719.492,6.747,6.747,0,0,0,.907.357l1.062,0.362a3.429,3.429,0,0,1,.751.35,1.276,1.276,0,0,1,.441.46,1.463,1.463,0,0,1,.142.693,1.29,1.29,0,0,1-.181.686,1.67,1.67,0,0,1-.466.5,2.147,2.147,0,0,1-.642.3,2.479,2.479,0,0,1-.706.1,2.527,2.527,0,0,1-1.126-.259,1.909,1.909,0,0,1-.829-0.764l-0.933.764a2.319,2.319,0,0,0,.557.589,3.114,3.114,0,0,0,.693.389,3.834,3.834,0,0,0,.771.22,4.58,4.58,0,0,0,2.007-.09,3.1,3.1,0,0,0,1.03-.493,2.659,2.659,0,0,0,.764-3.147,2.182,2.182,0,0,0-.609-0.745,3.433,3.433,0,0,0-.88-0.492q-0.5-.195-1.03-0.363a8.064,8.064,0,0,1-.92-0.337,2.379,2.379,0,0,1-.6-0.362,1.162,1.162,0,0,1-.317-0.434,1.456,1.456,0,0,1-.1-0.551,1.4,1.4,0,0,1,.168-0.7,1.359,1.359,0,0,1,.447-0.48,2.12,2.12,0,0,1,.628-0.272,2.838,2.838,0,0,1,.713-0.091,2.308,2.308,0,0,1,.945.2,1.6,1.6,0,0,1,.726.641Z"/>
</svg>
