<svg xmlns="http://www.w3.org/2000/svg" width="280" height="56" viewBox="0 0 280 56">
  <metadata><?xpacket begin="﻿" id="W5M0MpCehiHzreSzNTczkc9d"?>
<x:xmpmeta xmlns:x="adobe:ns:meta/" x:xmptk="Adobe XMP Core 5.6-c140 79.160451, 2017/05/06-01:08:21        ">
   <rdf:RDF xmlns:rdf="http://www.w3.org/1999/02/22-rdf-syntax-ns#">
      <rdf:Description rdf:about=""/>
   </rdf:RDF>
</x:xmpmeta>
                                                                                                    
                                                                                                    
                                                                                                    
                                                                                                    
                                                                                                    
                                                                                                    
                                                                                                    
                                                                                                    
                                                                                                    
                                                                                                    
                                                                                                    
                                                                                                    
                                                                                                    
                                                                                                    
                                                                                                    
                                                                                                    
                                                                                                    
                                                                                                    
                                                                                                    
                                                                                                    
                           
<?xpacket end="w"?></metadata>
<defs>
    <style>
      .cls-1 {
        fill: #fff;
      }

      .cls-2 {
        fill-rule: evenodd;
      }
    </style>
  </defs>
  <rect id="Rectangle_1_copy" data-name="Rectangle 1 copy" class="cls-1" width="280" height="56"/>
  <path class="cls-2" d="M11,11V25H25V46h7V25h7V18H32V11H11Z"/>
  <path class="cls-2" d="M11,32V46h7V32H11Z"/>
  <path class="cls-2" d="M55,18V40h4V31H73v9h4V18H73v9H59V18H55Z"/>
  <rect x="81" y="18" width="22" height="22"/>
  <rect class="cls-1" x="85" y="22" width="14" height="14"/>
  <path class="cls-2" d="M107,18V40h22V18h-4V36h-5V29h-4v7h-5V18h-4Z"/>
  <path class="cls-2" d="M141,18v4h9V36h-9v4h22V36h-9V22h9V18H141Z"/>
  <path class="cls-2" d="M167,18V40h4V22h5v7h4V22h5V40h4V18H167Z"/>
  <path class="cls-2" d="M193,18V40h4V31h14v9h4V18H193Z"/>
  <rect class="cls-1" x="197" y="22" width="14" height="5"/>
  <path class="cls-2" d="M219,18V40h22V27H230v4h7v5H223V22h18V18H219Z"/>
  <path class="cls-2" d="M245,18V40h22V36H249V31h7V27h-7V22h18V18H245Z"/>
</svg>
