<svg xmlns="http://www.w3.org/2000/svg" width="300" height="186" viewBox="0 0 300 186">
  <metadata><?xpacket begin="﻿" id="W5M0MpCehiHzreSzNTczkc9d"?>
<x:xmpmeta xmlns:x="adobe:ns:meta/" x:xmptk="Adobe XMP Core 5.6-c140 79.160451, 2017/05/06-01:08:21        ">
   <rdf:RDF xmlns:rdf="http://www.w3.org/1999/02/22-rdf-syntax-ns#">
      <rdf:Description rdf:about=""/>
   </rdf:RDF>
</x:xmpmeta>
                                                                                                    
                                                                                                    
                                                                                                    
                                                                                                    
                                                                                                    
                                                                                                    
                                                                                                    
                                                                                                    
                                                                                                    
                                                                                                    
                                                                                                    
                                                                                                    
                                                                                                    
                                                                                                    
                                                                                                    
                                                                                                    
                                                                                                    
                                                                                                    
                                                                                                    
                                                                                                    
                           
<?xpacket end="w"?></metadata>
<defs>
    <style>
      .cls-1 {
        fill: #fff;
      }

      .cls-2 {
        fill: #f0f0f0;
      }

      .cls-3 {
        fill-rule: evenodd;
      }
    </style>
  </defs>
  <rect class="cls-1" width="299" height="186"/>
  <rect class="cls-2" x="57" width="186" height="186"/>
  <path id="KNOW_HOW_THEY_WORK" data-name="KNOW HOW           THEY WORK" class="cls-3" d="M102.4,87.939h1.088V83.276h0.156l4.365,4.663h1.593l-4.754-4.987,4.534-4.184h-1.567l-4.171,3.964h-0.156V78.768H102.4v9.171Zm10.8,0h1.088V80.323h0.026l5.311,7.616H121V78.768h-1.088v7.616H119.89l-5.311-7.616h-1.373v9.171Zm18.9-.129a4.612,4.612,0,0,0,1.515-1,4.51,4.51,0,0,0,1-1.528,5.375,5.375,0,0,0,0-3.847,4.512,4.512,0,0,0-1-1.528,4.615,4.615,0,0,0-1.515-1,5.283,5.283,0,0,0-3.847,0,4.63,4.63,0,0,0-1.516,1,4.509,4.509,0,0,0-1,1.528,5.375,5.375,0,0,0,0,3.847,4.507,4.507,0,0,0,1,1.528,4.627,4.627,0,0,0,1.516,1A5.283,5.283,0,0,0,132.111,87.81Zm-3.394-.946a3.459,3.459,0,0,1-1.146-.816,3.717,3.717,0,0,1-.745-1.211,4.268,4.268,0,0,1,0-2.966,3.722,3.722,0,0,1,.745-1.211,3.464,3.464,0,0,1,1.146-.816,3.776,3.776,0,0,1,2.94,0,3.479,3.479,0,0,1,1.147.816,3.739,3.739,0,0,1,.745,1.211,4.283,4.283,0,0,1,0,2.966,3.735,3.735,0,0,1-.745,1.211,3.473,3.473,0,0,1-1.147.816A3.776,3.776,0,0,1,128.717,86.864Zm12.273,1.075h1.192l2.279-7.772h0.026l2.267,7.772h1.179l2.694-9.171h-1.14l-2.124,7.616h-0.026L145.1,78.768h-1.217l-2.254,7.616H141.6l-2.086-7.616h-1.2Zm19.74,0h1.088V83.665h4.9v4.274H167.8V78.768h-1.088v3.886h-4.9V78.768H160.73v9.171Zm18.18-.129a4.623,4.623,0,0,0,1.515-1,4.507,4.507,0,0,0,1-1.528,5.361,5.361,0,0,0,0-3.847,4.509,4.509,0,0,0-1-1.528,4.626,4.626,0,0,0-1.515-1,5.283,5.283,0,0,0-3.847,0,4.62,4.62,0,0,0-1.516,1,4.509,4.509,0,0,0-1,1.528,5.361,5.361,0,0,0,0,3.847,4.507,4.507,0,0,0,1,1.528,4.616,4.616,0,0,0,1.516,1A5.283,5.283,0,0,0,178.91,87.81Zm-3.394-.946a3.459,3.459,0,0,1-1.146-.816,3.717,3.717,0,0,1-.745-1.211,4.268,4.268,0,0,1,0-2.966,3.722,3.722,0,0,1,.745-1.211,3.464,3.464,0,0,1,1.146-.816,3.776,3.776,0,0,1,2.94,0,3.479,3.479,0,0,1,1.147.816,3.736,3.736,0,0,1,.744,1.211,4.268,4.268,0,0,1,0,2.966,3.732,3.732,0,0,1-.744,1.211,3.473,3.473,0,0,1-1.147.816A3.776,3.776,0,0,1,175.516,86.864Zm12.273,1.075h1.191l2.28-7.772h0.026l2.267,7.772h1.179l2.694-9.171h-1.14l-2.124,7.616h-0.026L191.9,78.768h-1.218l-2.254,7.616H188.4l-2.086-7.616h-1.2ZM108.55,98.827H101.4v1.01h3.031V108h1.088v-8.16h3.031v-1.01Zm3.924,9.17h1.088v-4.274h4.9V108h1.088v-9.17h-1.088v3.885h-4.9V98.827h-1.088V108Zm11.995,0h6v-1.01h-4.909v-3.264h4.365v-1.011h-4.365V99.837h4.676v-1.01h-5.764V108Zm12.486,0h1.088v-3.95l3.42-5.22h-1.309l-2.655,4.145-2.578-4.145h-1.386l3.42,5.22V108Zm16.036,0h1.191l2.28-7.771h0.026L158.755,108h1.178l2.695-9.17h-1.14l-2.124,7.616h-0.026L157.1,98.827h-1.218l-2.254,7.616H153.6l-2.086-7.616h-1.205Zm19.682-.129a4.625,4.625,0,0,0,1.515-1,4.513,4.513,0,0,0,1-1.529,5.374,5.374,0,0,0,0-3.847,4.509,4.509,0,0,0-1-1.528,4.617,4.617,0,0,0-1.515-1,5.283,5.283,0,0,0-3.847,0,4.632,4.632,0,0,0-1.516,1,4.507,4.507,0,0,0-1,1.528,5.374,5.374,0,0,0,0,3.847,4.511,4.511,0,0,0,1,1.529,4.64,4.64,0,0,0,1.516,1A5.291,5.291,0,0,0,172.673,107.868Zm-3.394-.946a3.443,3.443,0,0,1-1.146-.816,3.714,3.714,0,0,1-.745-1.211,4.267,4.267,0,0,1,0-2.966,3.714,3.714,0,0,1,.745-1.211,3.448,3.448,0,0,1,1.146-.816,3.776,3.776,0,0,1,2.94,0,3.462,3.462,0,0,1,1.147.816,3.728,3.728,0,0,1,.744,1.211,4.267,4.267,0,0,1,0,2.966,3.728,3.728,0,0,1-.744,1.211,3.457,3.457,0,0,1-1.147.816A3.775,3.775,0,0,1,169.279,106.922ZM179.933,108h1.088v-4.119h1.4L184.907,108h1.334l-2.6-4.222a2.91,2.91,0,0,0,1.684-.79,2.235,2.235,0,0,0,.609-1.633,2.461,2.461,0,0,0-.324-1.353,2.119,2.119,0,0,0-.842-0.758,3.532,3.532,0,0,0-1.172-.337,11.132,11.132,0,0,0-1.315-.078h-2.344V108Zm1.088-8.16h1.528a6.137,6.137,0,0,1,.8.052,2.189,2.189,0,0,1,.712.213,1.328,1.328,0,0,1,.512.46,1.433,1.433,0,0,1,.194.79,1.291,1.291,0,0,1-.265.875,1.556,1.556,0,0,1-.674.447,3.211,3.211,0,0,1-.894.168c-0.323.017-.637,0.026-0.939,0.026h-0.971V99.837Zm9.468,8.16h1.088v-4.663h0.156L196.1,108h1.593l-4.754-4.987,4.534-4.183H195.9l-4.171,3.963h-0.156V98.827h-1.088V108Z"/>
</svg>
