<svg xmlns="http://www.w3.org/2000/svg" width="1600" height="789" viewBox="0 0 1600 789">
  <metadata><?xpacket begin="﻿" id="W5M0MpCehiHzreSzNTczkc9d"?>
<x:xmpmeta xmlns:x="adobe:ns:meta/" x:xmptk="Adobe XMP Core 5.6-c140 79.160451, 2017/05/06-01:08:21        ">
   <rdf:RDF xmlns:rdf="http://www.w3.org/1999/02/22-rdf-syntax-ns#">
      <rdf:Description rdf:about=""/>
   </rdf:RDF>
</x:xmpmeta>
                                                                                                    
                                                                                                    
                                                                                                    
                                                                                                    
                                                                                                    
                                                                                                    
                                                                                                    
                                                                                                    
                                                                                                    
                                                                                                    
                                                                                                    
                                                                                                    
                                                                                                    
                                                                                                    
                                                                                                    
                                                                                                    
                                                                                                    
                                                                                                    
                                                                                                    
                                                                                                    
                           
<?xpacket end="w"?></metadata>
<defs>
    <style>
      .cls-1, .cls-4 {
        fill: #fff;
      }

      .cls-2 {
        fill: #363636;
      }

      .cls-3 {
        fill: #181818;
      }

      .cls-4 {
        font-size: 10px;
        text-anchor: middle;
        font-family: "Helvetica Neue";
        font-weight: 700;
      }

      .cls-5, .cls-6 {
        fill: #888;
      }

      .cls-5, .cls-7 {
        fill-rule: evenodd;
      }
    </style>
  </defs>
  <rect class="cls-1" x="-3" y="-2" width="1603" height="793"/>
  <rect x="689" y="51" width="222" height="394"/>
  <rect class="cls-2" x="689" y="179" width="74" height="74"/>
  <rect id="Rectangle_2_copy" data-name="Rectangle 2 copy" class="cls-2" x="763" y="253" width="74" height="74"/>
  <rect id="Rectangle_2_copy_2" data-name="Rectangle 2 copy 2" class="cls-2" x="837" y="179" width="74" height="74"/>
  <rect id="Rectangle_2_copy_3" data-name="Rectangle 2 copy 3" class="cls-3" x="837" y="253" width="74" height="74"/>
  <rect id="Rectangle_2_copy_4" data-name="Rectangle 2 copy 4" class="cls-3" x="689" y="253" width="74" height="74"/>
  <rect id="Rectangle_2_copy_5" data-name="Rectangle 2 copy 5" class="cls-3" x="763" y="179" width="74" height="74"/>
  <text id="iOS" class="cls-4" transform="translate(726.402 220.458) scale(1.035)"><tspan x="0">iOS</tspan></text>
  <text id="Android" class="cls-4" transform="translate(800.402 220.458) scale(1.035)"><tspan x="0">Android</tspan></text>
  <text id="Web" class="cls-4" transform="translate(874.402 220.458) scale(1.035)"><tspan x="0">Web</tspan></text>
  <text id="Windows" class="cls-4" transform="translate(874.402 293.458) scale(1.035)"><tspan x="0">Windows</tspan></text>
  <text id="Linux" class="cls-4" transform="translate(800.402 293.458) scale(1.035)"><tspan x="0">Linux</tspan></text>
  <text id="macOS" class="cls-4" transform="translate(726.402 293.458) scale(1.035)"><tspan x="0">macOS</tspan></text>
  <path id="info" class="cls-5" d="M701.558,59c2.808-.108,3.209,2.918,1.129,3.6a1.942,1.942,0,0,1-2.411-2.727A2.735,2.735,0,0,1,701.558,59Zm-1.487,5.648h3.9V74h-3.9V64.651Z"/>
  <circle class="cls-6" cx="800" cy="67" r="7"/>
  <circle class="cls-1" cx="800" cy="67" r="6"/>
  <path id="Ellipse_2_copy" data-name="Ellipse 2 copy" class="cls-7" d="M804.171,62.852a5.86,5.86,0,1,1-8.287,0A5.859,5.859,0,0,1,804.171,62.852Zm0,0-8.288,8.287L791.741,67l8.287-8.287Z"/>
  <path class="cls-5" d="M807,67a7,7,0,1,1-7-7A7,7,0,0,1,807,67Zm-7-4.55A4.55,4.55,0,1,0,804.55,67,4.55,4.55,0,0,0,800,62.45Z"/>
  <path id="hi" class="cls-5" d="M893,60h8.25v2.8H904v2.808h-2.75V74H898.5V65.606H893V60Zm0,8.394h2.75V74H893V68.394Z"/>
  <path id="xiscy" class="cls-5" d="M735,117h4.525v4.586h4.526V126.2h4.478v-4.609h4.525V117H757.6v4.61h-4.525v4.609h-4.525v4.562h4.525v4.609H757.6V140h-4.549v-4.586h-4.525v-4.609h-4.478v4.609h-4.526V140H735v-4.61h4.5v-4.609h4.525v-4.562H739.5V121.61H735V117Zm27.082,0h22.626v4.61h-9.05v13.78h9.05V140H762.082v-4.61h9.05V121.61h-9.05V117Zm27.105,0h22.626v4.61H793.736V126.2h18.077V140H789.187v-4.61h18.077v-4.585H789.187V117Zm27.105,0h22.626v4.61H820.841v13.78h18.077V140H816.292V117Zm27.105,0h4.549V126.2h13.529V117H866v23H843.4v-4.61h18.078v-4.585H843.4V117Z"/>
</svg>
