<svg xmlns="http://www.w3.org/2000/svg" width="300" height="186" viewBox="0 0 300 186">
  <metadata><?xpacket begin="﻿" id="W5M0MpCehiHzreSzNTczkc9d"?>
<x:xmpmeta xmlns:x="adobe:ns:meta/" x:xmptk="Adobe XMP Core 5.6-c140 79.160451, 2017/05/06-01:08:21        ">
   <rdf:RDF xmlns:rdf="http://www.w3.org/1999/02/22-rdf-syntax-ns#">
      <rdf:Description rdf:about=""/>
   </rdf:RDF>
</x:xmpmeta>
                                                                                                    
                                                                                                    
                                                                                                    
                                                                                                    
                                                                                                    
                                                                                                    
                                                                                                    
                                                                                                    
                                                                                                    
                                                                                                    
                                                                                                    
                                                                                                    
                                                                                                    
                                                                                                    
                                                                                                    
                                                                                                    
                                                                                                    
                                                                                                    
                                                                                                    
                                                                                                    
                           
<?xpacket end="w"?></metadata>
<defs>
    <style>
      .cls-1 {
        fill: #fff;
      }

      .cls-2 {
        fill: #f0f0f0;
      }

      .cls-3 {
        fill-rule: evenodd;
      }
    </style>
  </defs>
  <rect class="cls-1" width="299" height="186"/>
  <rect class="cls-2" x="57" width="186" height="186"/>
  <path id="CHOOSE_YOUR_OS_PLATFORM_" data-name="CHOOSE YOUR           OS / PLATFORM  " class="cls-3" d="M99.637,79.973a3.306,3.306,0,0,0-1.444-1.1,4.887,4.887,0,0,0-1.794-.337,4.538,4.538,0,0,0-4.32,2.927,5.162,5.162,0,0,0-.343,1.891,5.1,5.1,0,0,0,.356,1.93,4.619,4.619,0,0,0,.984,1.522,4.525,4.525,0,0,0,1.483,1,4.663,4.663,0,0,0,1.839.363,4.816,4.816,0,0,0,1.975-.388,3.774,3.774,0,0,0,1.5-1.218l-0.816-.687a3.409,3.409,0,0,1-1.153.952,3.555,3.555,0,0,1-2.921.032,3.368,3.368,0,0,1-1.1-.81,3.733,3.733,0,0,1-.719-1.2,4.233,4.233,0,0,1-.259-1.5,4.087,4.087,0,0,1,.259-1.444,3.833,3.833,0,0,1,.725-1.218,3.522,3.522,0,0,1,1.108-.835,3.177,3.177,0,0,1,1.405-.311,3.019,3.019,0,0,1,1.269.278,2.624,2.624,0,0,1,1.023.835Zm4.391,7.966h1.088V83.665h4.9v4.274H111.1V78.768h-1.088v3.886h-4.9V78.768h-1.088v9.171Zm18.179-.129a4.627,4.627,0,0,0,1.516-1,4.522,4.522,0,0,0,1-1.528,5.375,5.375,0,0,0,0-3.847,4.524,4.524,0,0,0-1-1.528,4.63,4.63,0,0,0-1.516-1,5.283,5.283,0,0,0-3.847,0,4.615,4.615,0,0,0-1.515,1,4.512,4.512,0,0,0-1,1.528,5.375,5.375,0,0,0,0,3.847,4.51,4.51,0,0,0,1,1.528,4.612,4.612,0,0,0,1.515,1A5.283,5.283,0,0,0,122.207,87.81Zm-3.394-.946a3.469,3.469,0,0,1-1.146-.816,3.717,3.717,0,0,1-.745-1.211,4.283,4.283,0,0,1,0-2.966,3.722,3.722,0,0,1,.745-1.211,3.475,3.475,0,0,1,1.146-.816,3.778,3.778,0,0,1,2.941,0,3.485,3.485,0,0,1,1.146.816,3.739,3.739,0,0,1,.745,1.211,4.283,4.283,0,0,1,0,2.966,3.735,3.735,0,0,1-.745,1.211,3.479,3.479,0,0,1-1.146.816A3.778,3.778,0,0,1,118.813,86.864Zm16.839,0.946a4.627,4.627,0,0,0,1.516-1,4.522,4.522,0,0,0,1-1.528,5.375,5.375,0,0,0,0-3.847,4.524,4.524,0,0,0-1-1.528,4.63,4.63,0,0,0-1.516-1,5.283,5.283,0,0,0-3.847,0,4.615,4.615,0,0,0-1.515,1,4.512,4.512,0,0,0-1,1.528,5.375,5.375,0,0,0,0,3.847,4.51,4.51,0,0,0,1,1.528,4.612,4.612,0,0,0,1.515,1A5.283,5.283,0,0,0,135.652,87.81Zm-3.393-.946a3.473,3.473,0,0,1-1.147-.816,3.735,3.735,0,0,1-.745-1.211,4.283,4.283,0,0,1,0-2.966,3.739,3.739,0,0,1,.745-1.211,3.479,3.479,0,0,1,1.147-.816,3.776,3.776,0,0,1,2.94,0,3.464,3.464,0,0,1,1.146.816,3.722,3.722,0,0,1,.745,1.211,4.268,4.268,0,0,1,0,2.966,3.717,3.717,0,0,1-.745,1.211,3.459,3.459,0,0,1-1.146.816A3.776,3.776,0,0,1,132.259,86.864Zm15.9-7.254a2.783,2.783,0,0,0-1.146-.835,4.227,4.227,0,0,0-2.584-.071,3.184,3.184,0,0,0-1,.5,2.362,2.362,0,0,0-.958,1.975,2.467,2.467,0,0,0,.175.978,2.092,2.092,0,0,0,.479.7,2.775,2.775,0,0,0,.719.492,6.643,6.643,0,0,0,.907.356l1.062,0.363a3.41,3.41,0,0,1,.751.35,1.269,1.269,0,0,1,.44.46,1.463,1.463,0,0,1,.143.693,1.3,1.3,0,0,1-.181.686,1.659,1.659,0,0,1-.467.5,2.131,2.131,0,0,1-.641.3,2.533,2.533,0,0,1-1.833-.155,1.92,1.92,0,0,1-.829-0.764l-0.932.764a2.331,2.331,0,0,0,.557.589,3.1,3.1,0,0,0,.693.389,3.87,3.87,0,0,0,.77.22,4.605,4.605,0,0,0,.8.071,4.484,4.484,0,0,0,1.205-.162,3.113,3.113,0,0,0,1.03-.492,2.414,2.414,0,0,0,.991-2.027,2.467,2.467,0,0,0-.227-1.12,2.179,2.179,0,0,0-.609-0.745,3.471,3.471,0,0,0-.881-0.492q-0.5-.194-1.029-0.363a8.169,8.169,0,0,1-.92-0.337,2.35,2.35,0,0,1-.6-0.363,1.158,1.158,0,0,1-.317-0.434,1.452,1.452,0,0,1-.1-0.55,1.4,1.4,0,0,1,.168-0.7,1.358,1.358,0,0,1,.447-0.479,2.12,2.12,0,0,1,.628-0.272,2.832,2.832,0,0,1,.713-0.091,2.308,2.308,0,0,1,.945.2,1.609,1.609,0,0,1,.726.641Zm4.6,8.329h6v-1.01h-4.909V83.665h4.365v-1.01h-4.365V79.779h4.676v-1.01h-5.764v9.171Zm18.729,0h1.088V83.988l3.42-5.22h-1.308l-2.656,4.145-2.577-4.145h-1.386l3.419,5.22v3.951Zm14.359-.129a4.623,4.623,0,0,0,1.515-1,4.493,4.493,0,0,0,1-1.528,5.361,5.361,0,0,0,0-3.847,4.5,4.5,0,0,0-1-1.528,4.626,4.626,0,0,0-1.515-1,5.283,5.283,0,0,0-3.847,0,4.63,4.63,0,0,0-1.516,1,4.509,4.509,0,0,0-1,1.528,5.361,5.361,0,0,0,0,3.847,4.507,4.507,0,0,0,1,1.528,4.627,4.627,0,0,0,1.516,1A5.283,5.283,0,0,0,185.845,87.81Zm-3.394-.946a3.459,3.459,0,0,1-1.146-.816,3.717,3.717,0,0,1-.745-1.211,4.268,4.268,0,0,1,0-2.966,3.722,3.722,0,0,1,.745-1.211,3.464,3.464,0,0,1,1.146-.816,3.776,3.776,0,0,1,2.94,0,3.479,3.479,0,0,1,1.147.816,3.736,3.736,0,0,1,.744,1.211,4.268,4.268,0,0,1,0,2.966,3.732,3.732,0,0,1-.744,1.211,3.473,3.473,0,0,1-1.147.816A3.776,3.776,0,0,1,182.451,86.864Zm17.532-8.1H198.9v5.518a4.866,4.866,0,0,1-.117,1.075,2.675,2.675,0,0,1-.388.92,1.979,1.979,0,0,1-.726.641,2.832,2.832,0,0,1-2.28,0,1.968,1.968,0,0,1-.725-0.641,2.676,2.676,0,0,1-.389-0.92,4.926,4.926,0,0,1-.116-1.075V78.768h-1.088v5.673a5.25,5.25,0,0,0,.188,1.425,3.292,3.292,0,0,0,.595,1.185,2.889,2.889,0,0,0,1.069.816,4.389,4.389,0,0,0,3.212,0,2.873,2.873,0,0,0,1.069-.816,3.294,3.294,0,0,0,.6-1.185,5.289,5.289,0,0,0,.188-1.425V78.768Zm4.883,9.171h1.088V83.82h1.4l2.487,4.119h1.334l-2.6-4.223a2.908,2.908,0,0,0,1.684-.79,2.232,2.232,0,0,0,.609-1.632,2.462,2.462,0,0,0-.324-1.354,2.119,2.119,0,0,0-.842-0.758,3.532,3.532,0,0,0-1.172-.337,11.132,11.132,0,0,0-1.315-.078h-2.344v9.171Zm1.088-8.16h1.528a6.154,6.154,0,0,1,.8.052,2.18,2.18,0,0,1,.712.214,1.309,1.309,0,0,1,.512.46,1.424,1.424,0,0,1,.194.79,1.29,1.29,0,0,1-.265.874,1.555,1.555,0,0,1-.674.447,3.21,3.21,0,0,1-.893.168q-0.486.026-.94,0.026h-0.971V79.779ZM94.261,107.868a4.632,4.632,0,0,0,1.515-1,4.513,4.513,0,0,0,1-1.529,5.372,5.372,0,0,0,0-3.847,4.509,4.509,0,0,0-1-1.528,4.624,4.624,0,0,0-1.515-1,5.283,5.283,0,0,0-3.847,0,4.625,4.625,0,0,0-1.516,1,4.508,4.508,0,0,0-1,1.528,5.372,5.372,0,0,0,0,3.847,4.512,4.512,0,0,0,1,1.529,4.633,4.633,0,0,0,1.516,1A5.291,5.291,0,0,0,94.261,107.868Zm-3.394-.946a3.45,3.45,0,0,1-1.146-.816,3.718,3.718,0,0,1-.745-1.211,4.275,4.275,0,0,1,0-2.966,3.718,3.718,0,0,1,.745-1.211,3.455,3.455,0,0,1,1.146-.816,3.777,3.777,0,0,1,2.94,0,3.459,3.459,0,0,1,1.146.816,3.725,3.725,0,0,1,.745,1.211,4.275,4.275,0,0,1,0,2.966,3.725,3.725,0,0,1-.745,1.211,3.454,3.454,0,0,1-1.146.816A3.775,3.775,0,0,1,90.868,106.922Zm15.9-7.253a2.776,2.776,0,0,0-1.146-.835,4.226,4.226,0,0,0-2.584-.071,3.176,3.176,0,0,0-1,.5,2.359,2.359,0,0,0-.959,1.976,2.467,2.467,0,0,0,.175.978,2.087,2.087,0,0,0,.479.7,2.754,2.754,0,0,0,.719.492,6.7,6.7,0,0,0,.907.357l1.062,0.362a3.451,3.451,0,0,1,.751.35,1.284,1.284,0,0,1,.441.46,1.475,1.475,0,0,1,.142.693,1.29,1.29,0,0,1-.181.686,1.66,1.66,0,0,1-.467.5,2.13,2.13,0,0,1-.641.3,2.484,2.484,0,0,1-.706.1,2.534,2.534,0,0,1-1.127-.259,1.92,1.92,0,0,1-.829-0.764l-0.932.764a2.319,2.319,0,0,0,.557.589,3.114,3.114,0,0,0,.693.389,3.843,3.843,0,0,0,.77.22,4.585,4.585,0,0,0,2.008-.09,3.1,3.1,0,0,0,1.03-.493,2.413,2.413,0,0,0,.991-2.027,2.465,2.465,0,0,0-.227-1.12,2.182,2.182,0,0,0-.609-0.745,3.433,3.433,0,0,0-.88-0.492q-0.5-.195-1.03-0.363a7.994,7.994,0,0,1-.92-0.337,2.379,2.379,0,0,1-.6-0.362,1.162,1.162,0,0,1-.317-0.434,1.456,1.456,0,0,1-.1-0.551,1.4,1.4,0,0,1,.168-0.7,1.359,1.359,0,0,1,.447-0.48,2.12,2.12,0,0,1,.628-0.272A2.832,2.832,0,0,1,104.2,99.6a2.308,2.308,0,0,1,.945.2,1.606,1.606,0,0,1,.726.641Zm14.456-1.075-0.816-.311-3.9,9.947,0.816,0.324Zm10.064,9.4h1.088v-4.119h1.84a4.76,4.76,0,0,0,1.01-.116,3.008,3.008,0,0,0,.978-0.4,2.224,2.224,0,0,0,.732-0.777,2.844,2.844,0,0,0,.019-2.442,2.13,2.13,0,0,0-.712-0.777,3,3,0,0,0-1.024-.414,5.789,5.789,0,0,0-1.211-.123h-2.72V108Zm1.088-8.16h1.84a2.215,2.215,0,0,1,1.327.369,1.54,1.54,0,0,1,0,2.293,2.214,2.214,0,0,1-1.327.369h-1.84V99.837Zm9.236,8.16H146.9v-1.01h-4.2v-8.16h-1.088V108Zm8.056,0H150.9l0.945-2.254h4.586L157.361,108h1.27l-3.9-9.17h-1.023Zm6.347-3.264h-3.743l1.9-4.507H154.2Zm11.438-5.906H160.3v1.01h3.031V108h1.088v-8.16h3.031v-1.01Zm3.924,9.17h1.088v-4.119h4.275v-1.01h-4.275V99.837h4.6v-1.01h-5.687V108Zm16.03-.129a4.635,4.635,0,0,0,1.515-1,4.511,4.511,0,0,0,1-1.529,5.36,5.36,0,0,0,0-3.847,4.507,4.507,0,0,0-1-1.528,4.627,4.627,0,0,0-1.515-1,5.286,5.286,0,0,0-3.848,0,4.627,4.627,0,0,0-1.515,1,4.507,4.507,0,0,0-1,1.528,5.36,5.36,0,0,0,0,3.847,4.511,4.511,0,0,0,1,1.529,4.635,4.635,0,0,0,1.515,1A5.294,5.294,0,0,0,187.406,107.868Zm-3.394-.946a3.443,3.443,0,0,1-1.146-.816,3.714,3.714,0,0,1-.745-1.211,4.267,4.267,0,0,1,0-2.966,3.714,3.714,0,0,1,.745-1.211,3.448,3.448,0,0,1,1.146-.816,3.776,3.776,0,0,1,2.94,0,3.448,3.448,0,0,1,1.146.816,3.714,3.714,0,0,1,.745,1.211,4.267,4.267,0,0,1,0,2.966,3.714,3.714,0,0,1-.745,1.211,3.443,3.443,0,0,1-1.146.816A3.775,3.775,0,0,1,184.012,106.922ZM194.666,108h1.088v-4.119h1.4L199.64,108h1.334l-2.6-4.222a2.91,2.91,0,0,0,1.684-.79,2.235,2.235,0,0,0,.609-1.633,2.461,2.461,0,0,0-.324-1.353,2.126,2.126,0,0,0-.842-0.758,3.532,3.532,0,0,0-1.172-.337,11.132,11.132,0,0,0-1.315-.078h-2.344V108Zm1.088-8.16h1.528a6.137,6.137,0,0,1,.8.052,2.2,2.2,0,0,1,.712.213,1.328,1.328,0,0,1,.512.46,1.433,1.433,0,0,1,.194.79,1.3,1.3,0,0,1-.265.875,1.562,1.562,0,0,1-.674.447,3.211,3.211,0,0,1-.894.168q-0.486.025-.939,0.026h-0.971V99.837Zm9.468,8.16h1.088V100.3h0.026l3.29,7.694h0.661l3.29-7.694H213.6V108h1.088v-9.17h-1.58l-3.135,7.188H209.95l-3.109-7.188h-1.619V108Z"/>
</svg>
