<svg xmlns="http://www.w3.org/2000/svg" width="3200" height="945" viewBox="0 0 3200 945">
  <metadata><?xpacket begin="﻿" id="W5M0MpCehiHzreSzNTczkc9d"?>
<x:xmpmeta xmlns:x="adobe:ns:meta/" x:xmptk="Adobe XMP Core 5.6-c140 79.160451, 2017/05/06-01:08:21        ">
   <rdf:RDF xmlns:rdf="http://www.w3.org/1999/02/22-rdf-syntax-ns#">
      <rdf:Description rdf:about=""/>
   </rdf:RDF>
</x:xmpmeta>
                                                                                                    
                                                                                                    
                                                                                                    
                                                                                                    
                                                                                                    
                                                                                                    
                                                                                                    
                                                                                                    
                                                                                                    
                                                                                                    
                                                                                                    
                                                                                                    
                                                                                                    
                                                                                                    
                                                                                                    
                                                                                                    
                                                                                                    
                                                                                                    
                                                                                                    
                                                                                                    
                           
<?xpacket end="w"?></metadata>
<defs>
    <style>
      .cls-1, .cls-3 {
        fill: #fff;
      }

      .cls-2 {
        fill: #fefefe;
      }

      .cls-3, .cls-4, .cls-5, .cls-7, .cls-9 {
        fill-rule: evenodd;
      }

      .cls-4 {
        fill: #f8f8f8;
      }

      .cls-5 {
        fill: #e5e5e5;
      }

      .cls-6 {
        font-size: 10px;
        text-anchor: middle;
        font-family: "Helvetica Neue";
        font-weight: 700;
      }

      .cls-7, .cls-8 {
        fill: #888;
      }
    </style>
  </defs>
  <rect class="cls-1" x="-18" y="-6" width="3227" height="968"/>
  <rect id="Rectangle_1_copy" data-name="Rectangle 1 copy" class="cls-2" x="1390" y="115" width="410" height="716"/>
  <path class="cls-3" d="M1400.66,119H1797V822.175H1400.66V119Z"/>
  <path class="cls-4" d="M1400.66,347.443h132.11V479.511H1400.66V347.443Z"/>
  <path id="Rectangle_2_copy" data-name="Rectangle 2 copy" class="cls-4" d="M1532.77,478.511h132.12V610.579H1532.77V478.511Z"/>
  <path id="Rectangle_2_copy_2" data-name="Rectangle 2 copy 2" class="cls-4" d="M1664.89,347.443H1797V479.511H1664.89V347.443Z"/>
  <path id="Rectangle_2_copy_3" data-name="Rectangle 2 copy 3" class="cls-5" d="M1664.89,478.511H1797V610.579H1664.89V478.511Z"/>
  <path id="Rectangle_2_copy_4" data-name="Rectangle 2 copy 4" class="cls-5" d="M1400.66,478.511h132.11V610.579H1400.66V478.511Z"/>
  <path id="Rectangle_2_copy_5" data-name="Rectangle 2 copy 5" class="cls-5" d="M1532.77,347.443h132.12V479.511H1532.77V347.443Z"/>
  <text id="iOS" class="cls-6" transform="translate(1466.736 421.191) scale(1.854)"><tspan x="0">iOS</tspan></text>
  <text id="Android" class="cls-6" transform="translate(1599.309 421.191) scale(1.854)"><tspan x="0">Android</tspan></text>
  <text id="Web" class="cls-6" transform="translate(1731.882 421.191) scale(1.854)"><tspan x="0">Web</tspan></text>
  <text id="Windows" class="cls-6" transform="translate(1731.882 551.972) scale(1.854)"><tspan x="0">Windows</tspan></text>
  <text id="Linux" class="cls-6" transform="translate(1599.309 551.972) scale(1.854)"><tspan x="0">Linux</tspan></text>
  <text id="macOS" class="cls-6" transform="translate(1466.736 551.972) scale(1.854)"><tspan x="0">macOS</tspan></text>
  <path id="info" class="cls-7" d="M1423.08,133.283c5.01-.192,5.73,5.208,2.01,6.431-3.15,1.037-5.96-2.272-4.3-4.867A4.885,4.885,0,0,1,1423.08,133.283Zm-2.66,10.081h6.96v16.684h-6.96V143.364Z"/>
  <circle class="cls-8" cx="1598.825" cy="147.562" r="12.485"/>
  <path class="cls-3" d="M1598.83,136.847a10.709,10.709,0,1,1-10.71,10.708A10.706,10.706,0,0,1,1598.83,136.847Z"/>
  <path id="Ellipse_2_copy" data-name="Ellipse 2 copy" class="cls-9" d="M1605.3,141.442a9.1,9.1,0,1,1-12.87,0A9.09,9.09,0,0,1,1605.3,141.442Zm0,0-12.87,12.871-6.44-6.436,12.88-12.87Z"/>
  <path class="cls-7" d="M1611.33,147.555a12.5,12.5,0,1,1-12.5-12.493A12.5,12.5,0,0,1,1611.33,147.555Zm-12.5-8.12a8.121,8.121,0,1,0,8.12,8.12A8.116,8.116,0,0,0,1598.83,139.435Z"/>
  <path id="hi" class="cls-7" d="M1764.86,135.062h14.73v4.994h4.91v5.011h-4.91v14.981h-4.91V145.067h-9.82v-10Zm0,14.981h4.91v10h-4.91v-10Z"/>
  <path id="xiscy" class="cls-7" d="M1482.78,236.791h8.08v8.184h8.08V253.2h8v-8.226h8.08v-8.184h8.12v8.227h-8.08v8.226h-8.08v8.141h8.08v8.227h8.08v8.227h-8.12v-8.184h-8.08v-8.227h-8v8.227h-8.08v8.184h-8.08v-8.227h8.04v-8.227h8.08v-8.141h-8.08v-8.226h-8.04v-8.227Zm48.35,0h40.4v8.227h-16.16v24.594h16.16v8.227h-40.4v-8.227h16.16V245.018h-16.16v-8.227Zm48.39,0h40.4v8.227h-32.27V253.2h32.27v24.638h-40.4v-8.227h32.28v-8.184h-32.28V236.791Zm48.4,0h40.39v8.227h-32.27v24.594h32.27v8.227h-40.39V236.791Zm48.39,0h8.12V253.2h24.15v-16.41h8.08v41.048h-40.35v-8.227h32.27v-8.184h-32.27V236.791Z"/>
</svg>
